<?xml version="1.0" encoding="UTF-8"?>
<svg width="3710px" height="588px" viewBox="0 0 3710 588" version="1.1" xmlns="http://www.w3.org/2000/svg" xmlns:xlink="http://www.w3.org/1999/xlink">
    <!-- Generator: Sketch 51.2 (57519) - http://www.bohemiancoding.com/sketch -->
    <title>NewLogo_MavenHive_2018</title>
    <desc>Created with Sketch.</desc>
    <defs></defs>
    <g id="NewLogo_MavenHive_2018" stroke="none" stroke-width="1" fill="none" fill-rule="evenodd">
        <g id="black" transform="translate(4.000000, 0.000000)" fill="#EC373E">
            <g id="Text" transform="translate(929.000000, 195.000000)">
                <path d="M417,45.5159771 L417,366.787416 C417,380.242796 406.196043,391 392.699282,391 C379.194335,391 367.852909,380.242796 367.852909,366.787416 L367.852909,61.1260752 L243.064478,368.395944 C237.127758,381.848594 224.165738,391 208.494543,391 C192.834262,391 179.874971,381.848594 173.924609,368.395944 L49.1470912,61.1260752 L49.1470912,366.787416 C49.1470912,380.242796 37.8083929,391 24.3007184,391 C10.7930439,391 0,380.242796 0,366.787416 L0,45.5159771 C0,26.1480948 15.6602811,10 35.1046754,10 L52.9312044,10 C67.5110897,10 80.4812947,19.6894031 85.8860014,32.6067865 L208.494543,337.186672 L331.116727,32.6067865 C336.521434,19.6894031 349.477997,10 364.068796,10 L381.895325,10 C401.339719,10 417,26.1480948 417,45.5159771" id="Fill-8"></path>
                <path d="M673.7897,309.645202 L673.7897,264.476153 L614.859689,264.476153 C564.029893,264.476153 533.2103,276.308741 533.2103,306.959947 C533.2103,330.076611 546.72067,349.97588 590.520814,349.97588 C624.044119,349.97588 655.409916,330.616937 673.7897,309.645202 M723,213.933864 L723,366.111972 C723,379.55735 711.647138,390.306558 698.125844,390.306558 C684.607281,390.306558 673.7897,379.55735 673.7897,366.111972 L673.7897,352.131725 C654.3257,372.014621 622.959903,393 572.14103,393 C525.099162,393 484,362.883662 484,312.330458 C484,261.779982 524.014946,225.226127 608.365317,225.226127 L673.7897,225.226127 L673.7897,220.925352 C673.7897,173.06559 649.99976,154.238785 601.338395,154.238785 C571.056814,154.238785 549.424383,160.695405 529.425103,167.149296 C527.253939,167.684164 524.552958,168.219032 522.39545,168.219032 C511.577868,168.219032 502.382515,159.62294 502.382515,147.784894 C502.382515,138.651206 507.254659,131.116664 516.452744,127.350757 C541.86218,116.59882 571.594826,108 609.984814,108 C688.93049,108 723,161.230273 723,213.933864" id="Fill-9"></path>
                <path d="M1030,135.766403 C1030,140.070396 1028.91773,143.303173 1027.30114,147.071558 L933.38358,371.07593 C928.531086,381.845476 917.190427,391 903.704311,391 L898.306593,391 C884.812299,391 873.477092,381.845476 868.613694,371.07593 L774.698859,147.071558 C773.08227,143.303173 772,140.070396 772,135.766403 C772,122.302421 782.795435,111 796.292456,111 C806.008347,111 815.187194,116.916282 818.420372,125.002323 L901.005452,333.91676 L983.587806,125.002323 C986.820985,116.916282 996.002557,111 1005.71845,111 C1019.19911,111 1030,122.302421 1030,135.766403" id="Fill-10"></path>
                <path d="M1116.76196,227.912963 L1276.32261,227.912963 C1273.07982,171.987055 1230.88528,149.405475 1196.26909,149.405475 C1161.65018,149.405475 1120.00202,171.987055 1116.76196,227.912963 M1315.80981,349.435972 C1315.80981,358.031981 1309.31877,365.028859 1301.73768,369.33505 C1277.94264,382.777571 1254.14487,393 1207.08751,393 C1118.92018,393 1067,340.826318 1067,250.491813 C1067,177.900563 1106.47901,108 1196.26909,108 C1279.56267,108 1325,171.987055 1325,243.500393 C1325,256.942913 1315.26616,267.700205 1300.11765,267.700205 L1116.76196,267.700205 C1122.17117,316.094372 1152.99818,347.277418 1211.41214,347.277418 C1243.87284,347.277418 1264.41689,340.826318 1284.43642,330.612076 C1287.67921,329.00203 1290.38381,328.467167 1294.17299,328.467167 C1305.52686,328.467167 1315.80981,337.060447 1315.80981,349.435972" id="Fill-11"></path>
                <path d="M1637,213.649686 L1637,366.745984 C1637,380.224389 1625.68082,391 1612.20081,391 C1598.70172,391 1587.90845,380.224389 1587.90845,366.745984 L1587.90845,219.041595 C1587.90845,178.072934 1570.65447,153.28 1528.57678,153.28 C1489.73353,153.28 1461.68082,178.072934 1440.09972,205.027008 L1440.09972,366.745984 C1440.09972,380.224389 1428.77237,391 1415.28146,391 C1401.79327,391 1391,380.224389 1391,366.745984 L1391,135.490256 C1391,121.475669 1401.79327,110.697322 1415.28146,110.697322 C1428.77237,110.697322 1440.09972,121.475669 1440.09972,135.490256 L1440.09972,157.588603 C1462.75715,132.795669 1492.42026,108 1540.44093,108 C1601.93616,108 1637,155.971851 1637,213.649686" id="Fill-12"></path>
                <path d="M2026,34.750758 L2026,366.787243 C2026,380.24545 2014.65158,391 2001.15351,391 C1987.63635,391 1976.83353,380.24545 1976.83353,366.787243 L1976.83353,223.640853 L1772.14465,223.640853 L1772.14465,366.787243 C1772.14465,380.24545 1760.7935,391 1747.29816,391 C1733.80282,391 1723,380.24545 1723,366.787243 L1723,34.750758 C1723,21.2952814 1733.80282,10 1747.29816,10 C1760.7935,10 1772.14465,21.2952814 1772.14465,34.750758 L1772.14465,177.899879 L1976.83353,177.899879 L1976.83353,34.750758 C1976.83353,21.2952814 1987.63635,10 2001.15351,10 C2014.65158,10 2026,21.2952814 2026,34.750758" id="Fill-13"></path>
                <path d="M2166.17164,135.01953 L2166.17164,365.795965 C2166.17164,379.249325 2155.42989,390 2141.46563,390 C2128.02488,390 2117.28314,379.249325 2117.28314,365.795965 L2117.28314,135.01953 C2117.28314,121.033824 2128.02488,110.277688 2141.46563,110.277688 C2155.42989,110.277688 2166.17164,121.033824 2166.17164,135.01953 M2171,29.5793725 C2171,44.6379622 2158.64699,57.0157079 2143.62211,57.0157079 L2140.38331,57.0157079 C2125.35301,57.0157079 2113,44.6379622 2113,29.5793725 L2113,27.4226855 C2113,12.3668258 2125.35301,0 2140.38331,0 L2143.62211,0 C2158.64699,0 2171,12.3668258 2171,27.4226855" id="Fill-14"></path>
                <path d="M2483,135.766403 C2483,140.070396 2481.90958,143.303173 2480.29029,147.071558 L2386.38017,371.07593 C2381.52778,381.845476 2370.18463,391 2356.6988,391 L2351.3012,391 C2337.81809,391 2326.47767,381.845476 2321.61983,371.07593 L2227.70698,147.071558 C2226.09042,143.303173 2225,140.070396 2225,135.766403 C2225,122.302421 2235.79521,111 2249.30285,111 C2259.00218,111 2268.18355,116.916282 2271.41666,125.002323 L2354.01363,333.91676 L2436.58334,125.002323 C2439.81645,116.916282 2448.9951,111 2458.70261,111 C2472.21024,111 2483,122.302421 2483,135.766403" id="Fill-15"></path>
                <path d="M2569.75986,227.912963 L2729.31374,227.912963 C2726.07382,171.987055 2683.892,149.405475 2649.28547,149.405475 C2614.65709,149.405475 2572.99978,171.987055 2569.75986,227.912963 M2768.79928,349.435972 C2768.79928,358.031981 2762.31943,365.028859 2754.73867,369.33505 C2730.93097,382.777571 2707.14787,393 2660.08157,393 C2571.92618,393 2520,340.826318 2520,250.491813 C2520,177.900563 2559.48553,108 2649.28547,108 C2732.57552,108 2778,171.987055 2778,243.500393 C2778,256.942913 2768.25565,267.700205 2753.11871,267.700205 L2569.75986,267.700205 C2575.1661,316.094372 2606.01093,347.277418 2664.41695,347.277418 C2696.87354,347.277418 2717.42219,340.826318 2737.43814,330.612076 C2740.68079,329.00203 2743.37162,328.467167 2747.1661,328.467167 C2758.53042,328.467167 2768.79928,337.060447 2768.79928,349.435972" id="Fill-16"></path>
            </g>
            <g id="Symbol">
                <path d="M485.44895,384.162139 C498.677746,368.589364 509.483149,336.380922 509.483149,312.653157 L509.483149,242.0723 C509.483149,218.315656 531.149304,198.90925 557.537108,198.90925 L605.87504,198.893206 C632.371138,198.893206 654.038898,218.315656 654.038898,242.0723 L654.038898,330.085392 C654.038898,353.842035 632.371138,373.246035 605.87504,373.246035 L578.940147,373.246035 C552.521861,373.286947 520.344704,385.866778 507.501757,401.1997 C494.735018,416.543853 484.22161,448.591858 484.22161,472.281119 L484.22161,543.7163 C484.22161,567.470538 462.55385,586.86812 436.08663,586.86812 L387.766347,586.86812 C361.338434,586.86812 339.666663,567.470538 339.666663,543.7163 L339.666663,455.714439 C339.666663,431.931323 361.338434,412.528126 387.766347,412.528126 L413.347154,412.528126 C439.802341,412.528126 472.25224,399.765397 485.44895,384.162139" id="Fill-3"></path>
                <path d="M608.519034,0.275950887 C634.963793,0.275950887 656.65642,19.663105 656.65642,43.4357926 L656.65642,131.428829 C656.65642,155.199111 634.963793,174.615143 608.519034,174.615143 L560.174685,174.615143 C533.676982,174.615143 511.997992,155.199111 511.997992,131.428829 L511.997992,43.4357926 C511.997992,19.663105 533.676982,0.275950887 560.174685,0.275950887" id="Fill-4"></path>
                <path d="M655.036011,401.566297 C668.244753,417.223302 679.024486,449.373184 679.024486,473.127422 L679.024486,543.67218 C679.024486,567.470538 700.742783,586.823198 727.155454,586.823198 L775.506221,586.823198 C801.958199,586.823198 823.599487,567.470538 823.599487,543.67218 L823.599487,455.698396 C823.599487,431.918488 801.958199,412.528126 775.506221,412.528126 L748.547263,412.528126 C722.13379,412.528126 689.964655,399.952306 677.114488,384.596922 C664.342134,369.213462 653.800649,337.240862 653.800649,313.486625 L653.800649,242.073102 C653.800649,218.316458 632.185031,198.894008 605.687329,198.894008 L557.344584,198.90925 C530.924693,198.90925 509.232065,218.316458 509.232065,242.073102 L509.232065,330.086194 C509.232065,353.842838 530.924693,373.287749 557.344584,373.287749 L582.935018,373.246035 C609.443951,373.246035 641.812829,385.999138 655.036011,401.566297" id="Fill-5"></path>
                <path d="M146.059842,384.62901 C159.263771,369.068267 170.066767,336.864638 170.066767,313.103181 L170.066767,242.542379 C170.066767,218.788142 191.728911,199.379329 218.16645,199.379329 L266.525239,199.330396 C292.982832,199.330396 314.627329,218.788142 314.627329,242.542379 L314.627329,330.561888 C314.627329,354.312115 292.982832,373.724939 266.525239,373.724939 L239.570292,373.724939 C213.111896,373.750608 180.962014,386.330439 168.140726,401.678603 C155.326658,417.017141 144.812447,449.035465 144.812447,472.747187 L144.812447,544.174347 C144.812447,567.93099 123.196829,587.334188 96.7191814,587.334188 L48.3940846,587.334188 C21.9324802,587.334188 0.271939973,567.93099 0.271939973,544.174347 L0.271939973,456.17409 C0.271939973,432.414237 21.9324802,412.998205 48.3940846,412.998205 L73.9620573,412.998205 C100.394783,412.998205 132.834254,400.245102 146.059842,384.62901" id="Fill-6"></path>
                <path d="M315.658936,402.038783 C328.888535,417.662898 339.666663,449.823209 339.666663,473.612742 L339.666663,544.157501 C339.666663,567.930188 361.337632,587.308518 387.766347,587.308518 L436.085828,587.308518 C462.553048,587.308518 484.220808,567.930188 484.220808,544.157501 L484.220808,456.144409 C484.220808,432.37493 462.553048,412.997402 436.085828,412.997402 L409.16698,412.997402 C382.71821,412.997402 350.557899,400.414363 337.757468,385.059782 C324.923345,369.673113 314.441222,337.693293 314.441222,313.962319 L314.441222,242.542379 C314.441222,218.788142 292.783089,199.330396 266.308649,199.330396 L217.980344,199.378527 C191.531574,199.378527 169.878254,218.788142 169.878254,242.542379 L169.878254,330.561086 C169.878254,354.311312 191.531574,373.750608 217.980344,373.750608 L243.551525,373.724939 C270.025965,373.724939 302.459018,386.468415 315.658936,402.038783" id="Fill-7"></path>
            </g>
        </g>
    </g>
</svg>