<svg width="1024" height="560" viewBox="0 0 1024 560" xmlns="http://www.w3.org/2000/svg" xmlns:sketch="http://www.bohemiancoding.com/sketch/ns"><title>header 2</title><desc>Created with Sketch Beta.</desc><g sketch:type="MSLayerGroup" fill="none"><path d="M-1.521-.642v2.111l1.22-2.111h-1.22" fill="#2D0509" sketch:type="MSShapeGroup"/><path d="M-.301-.642l-1.22 2.111v91.322h55.181l-53.962-93.433" fill="#381317" sketch:type="MSShapeGroup"/><path d="M-.301-.642l53.962 93.433 53.929-93.433h-107.89" fill="#2B0C12" sketch:type="MSShapeGroup"/><path d="M107.589-.642l-53.929 93.433h107.882l-53.953-93.433" fill="#592B35" sketch:type="MSShapeGroup"/><path d="M107.589-.642l53.953 93.433 53.943-93.433h-107.897" fill="#41131C" sketch:type="MSShapeGroup"/><path d="M215.486-.642l-53.943 93.433h107.907l-53.964-93.433" fill="#2D0C13" sketch:type="MSShapeGroup"/><path d="M215.486-.642l53.964 93.433 53.939-93.433h-107.903" fill="#40101A" sketch:type="MSShapeGroup"/><path d="M323.388-.642l-53.939 93.433h107.882l-53.943-93.433" fill="#45141F" sketch:type="MSShapeGroup"/><path d="M431.269-.642h-107.88l53.943 93.433 53.937-93.433" fill="#51232C" sketch:type="MSShapeGroup"/><path d="M485.222 92.791l-53.953-93.433-53.937 93.433h107.89" fill="#622B35" sketch:type="MSShapeGroup"/><path d="M539.157-.642h-107.888l53.953 93.433 53.935-93.433" fill="#330C13" sketch:type="MSShapeGroup"/><path d="M593.108 92.791l-53.951-93.433-53.935 93.433h107.886" fill="#66242F" sketch:type="MSShapeGroup"/><path d="M647.045-.642h-107.888l53.951 93.433 53.937-93.433" fill="#9D535D" sketch:type="MSShapeGroup"/><path d="M593.108 92.791h107.921l-53.984-93.433-53.937 93.433" fill="#81363B" sketch:type="MSShapeGroup"/><path d="M701.03 92.791l53.908-93.433h-107.893l53.984 93.433" fill="#973843" sketch:type="MSShapeGroup"/><path d="M701.03 92.791h107.884l-53.976-93.433-53.908 93.433" fill="#8F2D3A" sketch:type="MSShapeGroup"/><path d="M808.914 92.791l53.939-93.433h-107.915l53.976 93.433" fill="#C35D6A" sketch:type="MSShapeGroup"/><path d="M808.914 92.791h107.882l-53.943-93.433-53.939 93.433" fill="#BC4D5A" sketch:type="MSShapeGroup"/><path d="M916.796 92.791l53.945-93.433h-107.888l53.943 93.433" fill="#B3364B" sketch:type="MSShapeGroup"/><path d="M916.796 92.791h106.871v-1.755l-52.926-91.678-53.945 93.433" fill="#B34759" sketch:type="MSShapeGroup"/><path d="M1023.667 91.036v-91.678h-52.926l52.926 91.678" fill="#C7604A" sketch:type="MSShapeGroup"/><path d="M-1.521 184.107v2.111h1.22l-1.22-2.111" fill="#4B2A2E" sketch:type="MSShapeGroup"/><path d="M53.66 92.791h-55.181v91.316l1.22 2.111 53.962-93.427" fill="#28060B" sketch:type="MSShapeGroup"/><path d="M53.66 92.791l-53.962 93.427h107.89l-53.929-93.427" fill="#22080D" sketch:type="MSShapeGroup"/><path d="M161.542 92.791h-107.882l53.929 93.427 53.953-93.427" fill="#1D0709" sketch:type="MSShapeGroup"/><path d="M161.542 92.791l-53.953 93.427h107.897l-53.943-93.427" fill="#2B0D12" sketch:type="MSShapeGroup"/><path d="M269.449 92.791h-107.907l53.943 93.427 53.964-93.427" fill="#4D1F24" sketch:type="MSShapeGroup"/><path d="M269.449 92.791l-53.964 93.427h107.903l-53.939-93.427" fill="#47181B" sketch:type="MSShapeGroup"/><path d="M377.332 92.791h-107.882l53.939 93.427 53.943-93.427" fill="#3D1B23" sketch:type="MSShapeGroup"/><path d="M377.332 92.791l-53.943 93.427h107.88l-53.937-93.427" fill="#632733" sketch:type="MSShapeGroup"/><path d="M485.222 92.791h-107.89l53.937 93.427 53.953-93.427" fill="#6C1F28" sketch:type="MSShapeGroup"/><path d="M539.157 186.218l-53.935-93.427-53.953 93.427h107.888" fill="#521621" sketch:type="MSShapeGroup"/><path d="M539.157 186.218l53.951-93.427h-107.886l53.935 93.427" fill="#49131F" sketch:type="MSShapeGroup"/><path d="M647.045 186.218l-53.937-93.427-53.951 93.427h107.888" fill="#661B26" sketch:type="MSShapeGroup"/><path d="M647.045 186.218l53.984-93.427h-107.921l53.937 93.427" fill="#BC5A5B" sketch:type="MSShapeGroup"/><path d="M754.938 186.218l-53.908-93.427-53.984 93.427h107.893" fill="#B36664" sketch:type="MSShapeGroup"/><path d="M754.938 186.218l53.976-93.427h-107.884l53.908 93.427" fill="#983D51" sketch:type="MSShapeGroup"/><path d="M862.853 186.218l-53.939-93.427-53.976 93.427h107.915" fill="#AD4F5E" sketch:type="MSShapeGroup"/><path d="M862.853 186.218l53.943-93.427h-107.882l53.939 93.427" fill="#DE8C9D" sketch:type="MSShapeGroup"/><path d="M970.741 186.218l-53.945-93.427-53.943 93.427h107.888" fill="#C0435A" sketch:type="MSShapeGroup"/><path d="M970.741 186.218l52.926-91.674v-1.753h-106.871l53.945 93.427" fill="#A04259" sketch:type="MSShapeGroup"/><path d="M1023.667 186.218v-91.674l-52.926 91.674h52.926" fill="#943140" sketch:type="MSShapeGroup"/><path d="M-1.521 186.218v2.112l1.22-2.112h-1.22" fill="#48292C" sketch:type="MSShapeGroup"/><path d="M-.301 186.218l-1.22 2.112v91.361h55.181l-53.962-93.473" fill="#24080C" sketch:type="MSShapeGroup"/><path d="M-.301 186.218l53.962 93.473 53.929-93.473h-107.89" fill="#21070B" sketch:type="MSShapeGroup"/><path d="M107.589 186.218l-53.929 93.473h107.882l-53.953-93.473" fill="#26090F" sketch:type="MSShapeGroup"/><path d="M107.589 186.218l53.953 93.473 53.943-93.473h-107.897" fill="#1F090C" sketch:type="MSShapeGroup"/><path d="M215.486 186.218l-53.943 93.473h107.907l-53.964-93.473" fill="#41171C" sketch:type="MSShapeGroup"/><path d="M215.486 186.218l53.964 93.473 53.939-93.473h-107.903" fill="#4C1C1D" sketch:type="MSShapeGroup"/><path d="M323.388 186.218l-53.939 93.473h107.882l-53.943-93.473" fill="#45141A" sketch:type="MSShapeGroup"/><path d="M323.388 186.218l53.943 93.473 53.937-93.473h-107.88" fill="#4D181B" sketch:type="MSShapeGroup"/><path d="M431.269 186.218l-53.937 93.473h107.89l-53.953-93.473" fill="#572127" sketch:type="MSShapeGroup"/><path d="M485.222 279.691l53.935-93.473h-107.888l53.953 93.473" fill="#661B26" sketch:type="MSShapeGroup"/><path d="M485.222 279.691h107.886l-53.951-93.473-53.935 93.473" fill="#5D1F25" sketch:type="MSShapeGroup"/><path d="M593.108 279.691l53.937-93.473h-107.888l53.951 93.473" fill="#661821" sketch:type="MSShapeGroup"/><path d="M593.108 279.691h107.921l-53.984-93.473-53.937 93.473" fill="#643039" sketch:type="MSShapeGroup"/><path d="M701.03 279.691l53.908-93.473h-107.893l53.984 93.473" fill="#7B212A" sketch:type="MSShapeGroup"/><path d="M701.03 279.691h107.884l-53.976-93.473-53.908 93.473" fill="#83404C" sketch:type="MSShapeGroup"/><path d="M808.914 279.691l53.939-93.473h-107.915l53.976 93.473" fill="#9E3345" sketch:type="MSShapeGroup"/><path d="M808.914 279.691h107.882l-53.943-93.473-53.939 93.473" fill="#963447" sketch:type="MSShapeGroup"/><path d="M916.796 279.691l53.945-93.473h-107.888l53.943 93.473" fill="#CD646F" sketch:type="MSShapeGroup"/><path d="M916.796 279.691h106.871v-1.755l-52.926-91.717-53.945 93.473" fill="#CE6E84" sketch:type="MSShapeGroup"/><path d="M1023.667 277.935v-91.717h-52.926l52.926 91.717" fill="#E17F9A" sketch:type="MSShapeGroup"/><path d="M-1.521 370.998v2.109h1.22l-1.22-2.109" fill="#140706" sketch:type="MSShapeGroup"/><path d="M53.66 279.691h-55.181v91.307l1.22 2.109 53.962-93.417" fill="#250B12" sketch:type="MSShapeGroup"/><path d="M53.66 279.691l-53.962 93.417h107.89l-53.929-93.417" fill="#120407" sketch:type="MSShapeGroup"/><path d="M161.542 279.691h-107.882l53.929 93.417 53.953-93.417" fill="#180707" sketch:type="MSShapeGroup"/><path d="M161.542 279.691l-53.953 93.417h107.897l-53.943-93.417" fill="#1F080B" sketch:type="MSShapeGroup"/><path d="M269.449 279.691h-107.907l53.943 93.417 53.964-93.417" fill="#602324" sketch:type="MSShapeGroup"/><path d="M269.449 279.691l-53.964 93.417h107.903l-53.939-93.417" fill="#300C11" sketch:type="MSShapeGroup"/><path d="M377.332 279.691h-107.882l53.939 93.417 53.943-93.417" fill="#3C1619" sketch:type="MSShapeGroup"/><path d="M323.388 373.107h107.88l-53.937-93.417-53.943 93.417" fill="#51141A" sketch:type="MSShapeGroup"/><path d="M377.332 279.691l53.937 93.417 53.953-93.417h-107.89" fill="#4A131B" sketch:type="MSShapeGroup"/><path d="M431.269 373.107h107.888l-53.935-93.417-53.953 93.417" fill="#72292A" sketch:type="MSShapeGroup"/><path d="M539.157 373.107l53.951-93.417h-107.886l53.935 93.417" fill="#5A1B22" sketch:type="MSShapeGroup"/><path d="M647.045 373.107l-53.937-93.417-53.951 93.417h107.888" fill="#4E121C" sketch:type="MSShapeGroup"/><path d="M647.045 373.107l53.984-93.417h-107.921l53.937 93.417" fill="#52191F" sketch:type="MSShapeGroup"/><path d="M754.938 373.107l-53.908-93.417-53.984 93.417h107.893" fill="#9B3C43" sketch:type="MSShapeGroup"/><path d="M754.938 373.107l53.976-93.417h-107.884l53.908 93.417" fill="#A55B61" sketch:type="MSShapeGroup"/><path d="M862.853 373.107l-53.939-93.417-53.976 93.417h107.915" fill="#944C4D" sketch:type="MSShapeGroup"/><path d="M862.853 373.107l53.943-93.417h-107.882l53.939 93.417" fill="#A54B5A" sketch:type="MSShapeGroup"/><path d="M970.741 373.107l-53.945-93.417-53.943 93.417h107.888" fill="#BB6072" sketch:type="MSShapeGroup"/><path d="M970.741 373.107l52.926-91.664v-1.753h-106.871l53.945 93.417" fill="#7D1F2E" sketch:type="MSShapeGroup"/><path d="M1023.667 373.107v-91.664l-52.926 91.664h52.926" fill="#B95E57" sketch:type="MSShapeGroup"/><path d="M-1.521 373.107v2.111l1.22-2.111h-1.22M-.301 373.107l-1.22 2.111v91.336h55.181l-53.962-93.448" fill="#1A0707" sketch:type="MSShapeGroup"/><path d="M-.301 373.107l53.962 93.448 53.929-93.448h-107.89" fill="#311013" sketch:type="MSShapeGroup"/><path d="M107.589 373.107l-53.929 93.448h107.882l-53.953-93.448" fill="#250C10" sketch:type="MSShapeGroup"/><path d="M107.589 373.107l53.953 93.448 53.943-93.448h-107.897" fill="#410D13" sketch:type="MSShapeGroup"/><path d="M215.486 373.107l-53.943 93.448h107.907l-53.964-93.448" fill="#371113" sketch:type="MSShapeGroup"/><path d="M215.486 373.107l53.964 93.448 53.939-93.448h-107.903" fill="#210709" sketch:type="MSShapeGroup"/><path d="M269.449 466.555h107.882l-53.943-93.448-53.939 93.448" fill="#441319" sketch:type="MSShapeGroup"/><path d="M323.388 373.107l53.943 93.448 53.937-93.448h-107.88" fill="#682226" sketch:type="MSShapeGroup"/><path d="M377.332 466.555h107.89l-53.953-93.448-53.937 93.448" fill="#491D1F" sketch:type="MSShapeGroup"/><path d="M431.269 373.107l53.953 93.448 53.935-93.448h-107.888" fill="#490E12" sketch:type="MSShapeGroup"/><path d="M485.222 466.555h107.886l-53.951-93.448-53.935 93.448" fill="#420C0F" sketch:type="MSShapeGroup"/><path d="M539.157 373.107l53.951 93.448 53.937-93.448h-107.888" fill="#612126" sketch:type="MSShapeGroup"/><path d="M593.108 466.555h107.921l-53.984-93.448-53.937 93.448" fill="#5C1C21" sketch:type="MSShapeGroup"/><path d="M701.03 466.555l53.908-93.448h-107.893l53.984 93.448" fill="#5E101B" sketch:type="MSShapeGroup"/><path d="M701.03 466.555h107.884l-53.976-93.448-53.908 93.448" fill="#682F39" sketch:type="MSShapeGroup"/><path d="M808.914 466.555l53.939-93.448h-107.915l53.976 93.448" fill="#5E1421" sketch:type="MSShapeGroup"/><path d="M808.914 466.555h107.882l-53.943-93.448-53.939 93.448" fill="#661927" sketch:type="MSShapeGroup"/><path d="M916.796 466.555l53.945-93.448h-107.888l53.943 93.448" fill="#4F1627" sketch:type="MSShapeGroup"/><path d="M916.796 466.555h106.871v-1.759l-52.926-91.689-53.945 93.448" fill="#98263C" sketch:type="MSShapeGroup"/><path d="M1023.667 464.796v-91.689h-52.926l52.926 91.689" fill="#A21F33" sketch:type="MSShapeGroup"/><path d="M-1.521 557.867v2.109h1.22l-1.22-2.109" fill="#0E0205" sketch:type="MSShapeGroup"/><path d="M53.66 466.555h-55.181v91.312l1.22 2.109 53.962-93.421" fill="#21080E" sketch:type="MSShapeGroup"/><path d="M53.66 466.555l-53.962 93.421h107.89l-53.929-93.421" fill="#190707" sketch:type="MSShapeGroup"/><path d="M161.542 466.555h-107.882l53.929 93.421 53.953-93.421" fill="#210608" sketch:type="MSShapeGroup"/><path d="M107.589 559.976h107.897l-53.943-93.421-53.953 93.421" fill="#361A1D" sketch:type="MSShapeGroup"/><path d="M161.542 466.555l53.943 93.421 53.964-93.421h-107.907" fill="#482426" sketch:type="MSShapeGroup"/><path d="M215.486 559.976h107.903l-53.939-93.421-53.964 93.421" fill="#320C10" sketch:type="MSShapeGroup"/><path d="M269.449 466.555l53.939 93.421 53.943-93.421h-107.882" fill="#360B10" sketch:type="MSShapeGroup"/><path d="M323.388 559.976h107.88l-53.937-93.421-53.943 93.421" fill="#480E13" sketch:type="MSShapeGroup"/><path d="M377.332 466.555l53.937 93.421 53.953-93.421h-107.89" fill="#39080F" sketch:type="MSShapeGroup"/><path d="M431.269 559.976h107.888l-53.935-93.421-53.953 93.421" fill="#4E0F18" sketch:type="MSShapeGroup"/><path d="M485.222 466.555l53.935 93.421 53.951-93.421h-107.886" fill="#4A1113" sketch:type="MSShapeGroup"/><path d="M539.157 559.976h107.888l-53.937-93.421-53.951 93.421" fill="#33070C" sketch:type="MSShapeGroup"/><path d="M593.108 466.555l53.937 93.421 53.984-93.421h-107.921" fill="#762E37" sketch:type="MSShapeGroup"/><path d="M647.045 559.976h107.893l-53.908-93.421-53.984 93.421" fill="#4C1319" sketch:type="MSShapeGroup"/><path d="M754.938 559.976l53.976-93.421h-107.884l53.908 93.421" fill="#701324" sketch:type="MSShapeGroup"/><path d="M862.853 559.976l-53.939-93.421-53.976 93.421h107.915" fill="#3E111C" sketch:type="MSShapeGroup"/><path d="M862.853 559.976l53.943-93.421h-107.882l53.939 93.421" fill="#701724" sketch:type="MSShapeGroup"/><path d="M970.741 559.976l-53.945-93.421-53.943 93.421h107.888" fill="#9A3C3F" sketch:type="MSShapeGroup"/><path d="M970.741 559.976l52.926-91.672v-1.749h-106.871l53.945 93.421" fill="#9F1F2F" sketch:type="MSShapeGroup"/><path d="M1023.667 559.976v-91.672l-52.926 91.672h52.926" fill="#D21F35" sketch:type="MSShapeGroup"/><path d="M-1.521 559.976v2.112l1.22-2.112h-1.22" fill="#0D0104" sketch:type="MSShapeGroup"/><path d="M-.301 559.976l-1.22 2.112v91.332h55.181l-53.962-93.444" fill="#1D0607" sketch:type="MSShapeGroup"/><path d="M-.301 559.976l53.962 93.444 53.929-93.444h-107.89" fill="#170606" sketch:type="MSShapeGroup"/><path d="M53.66 653.42h107.882l-53.953-93.444-53.929 93.444" fill="#3D191E" sketch:type="MSShapeGroup"/><path d="M107.589 559.976l53.953 93.444 53.943-93.444h-107.897" fill="#1C0407" sketch:type="MSShapeGroup"/><path d="M161.542 653.42h107.907l-53.964-93.444-53.943 93.444" fill="#2D090E" sketch:type="MSShapeGroup"/><path d="M215.486 559.976l53.964 93.444 53.939-93.444h-107.903" fill="#2D0709" sketch:type="MSShapeGroup"/><path d="M269.449 653.42h107.882l-53.943-93.444-53.939 93.444" fill="#411016" sketch:type="MSShapeGroup"/><path d="M323.388 559.976l53.943 93.444 53.937-93.444h-107.88" fill="#2E0608" sketch:type="MSShapeGroup"/><path d="M377.332 653.42h107.89l-53.953-93.444-53.937 93.444" fill="#3C0C11" sketch:type="MSShapeGroup"/><path d="M431.269 559.976l53.953 93.444 53.935-93.444h-107.888" fill="#611D22" sketch:type="MSShapeGroup"/><path d="M485.222 653.42h107.886l-53.951-93.444-53.935 93.444" fill="#46090F" sketch:type="MSShapeGroup"/><path d="M539.157 559.976l53.951 93.444 53.937-93.444h-107.888" fill="#3E0812" sketch:type="MSShapeGroup"/><path d="M593.108 653.42h107.921l-53.984-93.444-53.937 93.444" fill="#61131C" sketch:type="MSShapeGroup"/><path d="M647.045 559.976l53.984 93.444 53.908-93.444h-107.893" fill="#711F27" sketch:type="MSShapeGroup"/><path d="M701.03 653.42h107.884l-53.976-93.444-53.908 93.444" fill="#6F212C" sketch:type="MSShapeGroup"/><path d="M754.938 559.976l53.976 93.444 53.939-93.444h-107.915" fill="#571D24" sketch:type="MSShapeGroup"/><path d="M808.914 653.42h107.882l-53.943-93.444-53.939 93.444" fill="#28060C" sketch:type="MSShapeGroup"/><path d="M916.796 653.42l53.945-93.444h-107.888l53.943 93.444" fill="#7E1F2D" sketch:type="MSShapeGroup"/><path d="M916.796 653.42h106.871v-1.755l-52.926-91.689-53.945 93.444" fill="#440D18" sketch:type="MSShapeGroup"/><path d="M1023.667 651.665v-91.689h-52.926l52.926 91.689" fill="#5A0B18" sketch:type="MSShapeGroup"/><path d="M88.149 532.032l-48.406 27.944h48.406v-27.944" fill="#1D0707" sketch:type="MSShapeGroup"/><path d="M88.149 559.976h-48.406l-30.033 17.337 15.267 26.436 43.017 24.833 20.155-34.923v-33.683" fill="#1A0606" sketch:type="MSShapeGroup"/><path d="M-1.521 557.867v2.109h1.22l-1.22-2.109" fill="#100205" sketch:type="MSShapeGroup"/><path d="M-1.521 480.252v77.615l1.22 2.109 34.227-59.256-35.446-20.468" fill="#27080F" sketch:type="MSShapeGroup"/><path d="M33.925 500.72l-34.227 59.256h40.044l48.406-27.944-54.223-31.312" fill="#1E0707" sketch:type="MSShapeGroup"/><path d="M-.301 559.976h-1.22v2.112l1.22-2.112" fill="#0F0104" sketch:type="MSShapeGroup"/><path d="M-.301 559.976l-1.22 2.112v21.708l11.231-6.483-10.012-17.337" fill="#230607" sketch:type="MSShapeGroup"/><path d="M39.743 559.976h-40.044l10.012 17.337 30.033-17.337" fill="#1B0606" sketch:type="MSShapeGroup"/><path d="M43.781 449.447l-29.641 17.108h39.521l-9.88-17.108" fill="#260708" sketch:type="MSShapeGroup"/><path d="M73.399 432.351l-29.619 17.096 9.88 17.108 19.739-34.204" fill="#481114" sketch:type="MSShapeGroup"/><path d="M88.149 423.837l-14.75 8.514-19.739 34.204h34.489v-42.718" fill="#360C12" sketch:type="MSShapeGroup"/><path d="M53.66 466.555h-39.521l-15.66 9.039v4.658l35.446 20.468 19.735-34.165" fill="#30080F" sketch:type="MSShapeGroup"/><path d="M53.66 466.555l-19.735 34.165 54.223 31.312v-5.733l-34.489-59.744" fill="#240708" sketch:type="MSShapeGroup"/><path d="M88.149 466.555h-34.489l34.489 59.744v-59.744" fill="#300609" sketch:type="MSShapeGroup"/><path d="M-1.521 372.079v1.028h1.22l-.28-.488-.939-.54" fill="#1C0706" sketch:type="MSShapeGroup"/><path d="M-.582 372.619l.28.488.142-.243-.422-.245" fill="#310B13" sketch:type="MSShapeGroup"/><path d="M-.159 372.864l-.142.243h.562l-.42-.243" fill="#180407" sketch:type="MSShapeGroup"/><path d="M-.301 373.107h-1.22v2.111l1.22-2.111M-.301 373.107l-1.22 2.111v91.336h15.66l29.641-17.108-44.082-76.339" fill="#220707" sketch:type="MSShapeGroup"/><path d="M.261 373.107h-.562l44.082 76.339 29.619-17.096 7.371-12.772-80.509-46.472" fill="#411114" sketch:type="MSShapeGroup"/><path d="M80.77 419.579l-7.371 12.772 14.75-8.514-7.379-4.258" fill="#310C11" sketch:type="MSShapeGroup"/><path d="M14.139 466.555h-15.66v9.039l15.66-9.039" fill="#2C080F" sketch:type="MSShapeGroup"/><path d="M-1.521 370.998v1.082l.939.54-.939-1.621" fill="#1A0706" sketch:type="MSShapeGroup"/><path d="M5.234 363.524l-6.755 3.9v3.574l.939 1.621.422.245 5.393-9.34" fill="#2F0B13" sketch:type="MSShapeGroup"/><path d="M77.857 321.607l-72.623 41.917-5.393 9.34.42.243h87.888v-33.675l-10.292-17.825" fill="#170407" sketch:type="MSShapeGroup"/><path d="M88.149 315.668l-10.292 5.939 10.292 17.825v-23.764" fill="#1E0707" sketch:type="MSShapeGroup"/><path d="M88.149 373.107h-87.888l80.509 46.472 7.379-12.786v-33.685" fill="#3E1114" sketch:type="MSShapeGroup"/><path d="M88.149 406.793l-7.379 12.786 7.379 4.258v-17.044" fill="#2F0C11" sketch:type="MSShapeGroup"/><path d="M-1.521 263.907v15.784h27.344l-27.344-15.784" fill="#3A090E" sketch:type="MSShapeGroup"/><path d="M25.824 279.691h-27.344v87.733l6.755-3.9 41.466-71.783-20.876-12.051" fill="#3B0D16" sketch:type="MSShapeGroup"/><path d="M46.7 291.742l-41.466 71.783 72.623-41.917-10.284-17.817-20.874-12.049" fill="#1D0407" sketch:type="MSShapeGroup"/><path d="M67.574 303.79l10.284 17.817 10.292-5.939-20.575-11.878" fill="#260708" sketch:type="MSShapeGroup"/><path d="M31.019 240.47l-32.54 18.779v4.658l27.344 15.784h27.837l-22.641-39.22" fill="#540B0F" sketch:type="MSShapeGroup"/><path d="M88.149 207.496l-57.13 32.974 22.641 39.22 34.489-59.777v-12.418" fill="#4D070E" sketch:type="MSShapeGroup"/><path d="M88.149 219.913l-34.489 59.777h34.489v-59.777" fill="#580C13" sketch:type="MSShapeGroup"/><path d="M53.66 279.691h-27.837l20.876 12.051 6.961-12.051" fill="#560D17" sketch:type="MSShapeGroup"/><path d="M53.66 279.691l-6.961 12.051 20.874 12.049-13.913-24.1" fill="#2A0508" sketch:type="MSShapeGroup"/><path d="M88.149 279.691h-34.489l13.913 24.1 20.575 11.878v-35.978" fill="#380709" sketch:type="MSShapeGroup"/><path d="M-1.521 184.107v2.111h1.22l-1.22-2.111" fill="#7A2F38" sketch:type="MSShapeGroup"/><path d="M-1.521 155.722v28.385l1.22 2.111 12.904-22.341-14.123-8.156" fill="#41060D" sketch:type="MSShapeGroup"/><path d="M12.602 163.877l-12.904 22.341h51.601l-38.697-22.341" fill="#370910" sketch:type="MSShapeGroup"/><path d="M-.301 186.218h-1.22v2.112l1.22-2.112" fill="#752E36" sketch:type="MSShapeGroup"/><path d="M-.301 186.218l-1.22 2.112v70.92l32.54-18.779-31.32-54.252" fill="#3A090E" sketch:type="MSShapeGroup"/><path d="M51.3 186.218h-51.601l31.32 54.252 57.13-32.974-36.849-21.278" fill="#35070D" sketch:type="MSShapeGroup"/><path d="M30.763 132.436l-32.284 18.635v4.651l14.123 8.156 18.161-31.442" fill="#48070E" sketch:type="MSShapeGroup"/><path d="M65.104 112.614l-34.34 19.821-18.161 31.442 38.697 22.341h36.849v-33.679l-23.045-39.925" fill="#3D0B11" sketch:type="MSShapeGroup"/><path d="M88.149 99.313l-23.045 13.301 23.045 39.925v-53.226" fill="#34070D" sketch:type="MSShapeGroup"/><path d="M88.149 186.218h-36.849l36.849 21.278v-21.278" fill="#3C070E" sketch:type="MSShapeGroup"/><path d="M-1.521 47.518v45.273h55.181l-11.612-20.108-43.569-25.165" fill="#61171D" sketch:type="MSShapeGroup"/><path d="M42.048 72.683l11.612 20.108 5.799-10.049-17.411-10.059" fill="#4B0F17" sketch:type="MSShapeGroup"/><path d="M59.459 82.742l-5.799 10.049h23.198l-17.399-10.049" fill="#9B3644" sketch:type="MSShapeGroup"/><path d="M53.66 92.791h-55.181v58.279l32.284-18.635 22.897-39.645" fill="#45070E" sketch:type="MSShapeGroup"/><path d="M53.66 92.791l-22.897 39.645 34.34-19.821-11.443-19.823" fill="#3B0B10" sketch:type="MSShapeGroup"/><path d="M76.858 92.791h-23.198l11.443 19.823 23.045-13.301-11.291-6.522" fill="#32070D" sketch:type="MSShapeGroup"/><path d="M18.241 31.463l-19.762 11.4v4.656l43.569 25.165-23.807-41.221" fill="#7A191F" sketch:type="MSShapeGroup"/><path d="M88.149-.642h-14.255l-55.653 32.105 23.807 41.221 17.411 10.059 28.69-49.704v-33.681" fill="#5D1019" sketch:type="MSShapeGroup"/><path d="M88.149 33.038l-28.69 49.704 17.399 10.049h11.291v-59.752" fill="#C1394B" sketch:type="MSShapeGroup"/><path d="M88.149 92.791h-11.291l11.291 6.522v-6.522" fill="#3F080E" sketch:type="MSShapeGroup"/><path d="M-.301-.642h-1.22v2.111l1.22-2.111" fill="#5B060D" sketch:type="MSShapeGroup"/><path d="M-.301-.642l-1.22 2.111v41.394l19.762-11.4-18.542-32.105" fill="#72181F" sketch:type="MSShapeGroup"/><path d="M73.894-.642h-74.195l18.542 32.105 55.653-32.105" fill="#570F18" sketch:type="MSShapeGroup"/><path d="M88.149 532.032v27.944h19.44l-14.478-25.078-4.963-2.865" fill="#1D0707" sketch:type="MSShapeGroup"/><path d="M93.111 534.898l14.478 25.078 7.241-12.541-21.719-12.537" fill="#270608" sketch:type="MSShapeGroup"/><path d="M114.83 547.435l-7.241 12.541h28.966l-21.725-12.541" fill="#401B1E" sketch:type="MSShapeGroup"/><path d="M107.589 559.976h-19.44v33.683l19.44-33.683" fill="#1B0606" sketch:type="MSShapeGroup"/><path d="M107.589 559.976l-19.44 33.683v46.56l49.327-28.482-29.886-51.762" fill="#481A1F" sketch:type="MSShapeGroup"/><path d="M136.555 559.976h-28.966l29.886 51.762 44.368-25.618-45.289-26.143" fill="#210407" sketch:type="MSShapeGroup"/><path d="M90.631 530.599l-2.482 1.434 4.963 2.865-2.48-4.299" fill="#1F0707" sketch:type="MSShapeGroup"/><path d="M141.532 501.204l-50.901 29.394 2.48 4.299 21.719 12.537 26.702-46.231" fill="#290608" sketch:type="MSShapeGroup"/><path d="M171.544 483.874l-30.012 17.331-26.702 46.231 21.725 12.541h45.289v-58.263l-10.3-17.84" fill="#431B1F" sketch:type="MSShapeGroup"/><path d="M181.844 477.924l-10.3 5.949 10.3 17.84v-23.789" fill="#592529" sketch:type="MSShapeGroup"/><path d="M181.844 559.976h-45.289l45.289 26.143v-26.143" fill="#220407" sketch:type="MSShapeGroup"/><path d="M88.149 423.837v42.718h73.394l-.301-.523-73.093-42.195" fill="#300C11" sketch:type="MSShapeGroup"/><path d="M161.242 466.032l.301.523.152-.262-.453-.262" fill="#550E16" sketch:type="MSShapeGroup"/><path d="M161.695 466.294l-.152.262h.604l-.451-.262" fill="#481216" sketch:type="MSShapeGroup"/><path d="M88.149 526.299v5.733l2.482-1.434-2.482-4.299" fill="#1F0707" sketch:type="MSShapeGroup"/><path d="M161.542 466.555h-73.394v59.744l2.482 4.299 50.901-29.394 20.011-34.649" fill="#2B0609" sketch:type="MSShapeGroup"/><path d="M161.542 466.555l-20.011 34.649 30.012-17.331-10.001-17.318" fill="#461C1F" sketch:type="MSShapeGroup"/><path d="M162.146 466.555h-.604l10.001 17.318 10.3-5.949-19.698-11.369" fill="#5E262A" sketch:type="MSShapeGroup"/><path d="M181.844 369.752l-5.813 3.356h5.813v-3.356" fill="#32090D" sketch:type="MSShapeGroup"/><path d="M124.697 402.738l-36.549 21.099 73.093 42.195-36.544-63.293" fill="#3A0D13" sketch:type="MSShapeGroup"/><path d="M181.844 373.107h-5.813l-51.333 29.631 36.544 63.293.453.262 20.149-34.907v-58.279" fill="#660F18" sketch:type="MSShapeGroup"/><path d="M181.844 431.387l-20.149 34.907.451.262h19.698v-35.168" fill="#571318" sketch:type="MSShapeGroup"/><path d="M181.844 466.555h-19.698l19.698 11.369v-11.369" fill="#72292D" sketch:type="MSShapeGroup"/><path d="M88.149 339.433v33.675h19.44l-19.44-33.675" fill="#1B0407" sketch:type="MSShapeGroup"/><path d="M88.149 315.668v23.764l19.44 33.675 20.019-34.662-39.459-22.777" fill="#250708" sketch:type="MSShapeGroup"/><path d="M127.608 338.446l-20.019 34.662h68.441l5.813-3.356-54.236-31.306" fill="#31080D" sketch:type="MSShapeGroup"/><path d="M107.589 373.107h-19.44v33.685l19.44-33.685" fill="#4B1116" sketch:type="MSShapeGroup"/><path d="M107.589 373.107l-19.44 33.685v17.044l36.549-21.099-17.108-29.631" fill="#390D12" sketch:type="MSShapeGroup"/><path d="M176.03 373.107h-68.441l17.108 29.631 51.333-29.631" fill="#640E17" sketch:type="MSShapeGroup"/><path d="M158.774 274.893l-8.31 4.798h11.079l-2.769-4.798" fill="#370B11" sketch:type="MSShapeGroup"/><path d="M167.08 270.097l-8.306 4.796 2.769 4.798 5.537-9.593" fill="#2E0B0E" sketch:type="MSShapeGroup"/><path d="M181.844 261.573l-14.764 8.524-5.537 9.593h20.301v-18.118" fill="#5E1A21" sketch:type="MSShapeGroup"/><path d="M161.542 279.691h-11.079l-62.315 35.978 39.459 22.777 33.934-58.755" fill="#220708" sketch:type="MSShapeGroup"/><path d="M161.542 279.691l-33.934 58.755 54.236 31.306v-54.905l-20.301-35.156" fill="#2E090C" sketch:type="MSShapeGroup"/><path d="M181.844 279.691h-20.301l20.301 35.156v-35.156" fill="#8B272A" sketch:type="MSShapeGroup"/><path d="M88.149 207.496v12.418l5.375-9.315-5.375-3.102" fill="#30070C" sketch:type="MSShapeGroup"/><path d="M93.523 210.598l-5.375 9.315v59.777h62.315l8.31-4.798-23.056-39.941-42.195-24.353" fill="#370B11" sketch:type="MSShapeGroup"/><path d="M135.718 234.951l23.056 39.941 8.306-4.796 7.379-12.786-38.74-22.359" fill="#2E0B0E" sketch:type="MSShapeGroup"/><path d="M174.459 257.311l-7.379 12.786 14.764-8.524-7.385-4.262" fill="#5E1921" sketch:type="MSShapeGroup"/><path d="M150.464 279.691h-62.315v35.978l62.315-35.978" fill="#220708" sketch:type="MSShapeGroup"/><path d="M181.844 153.396l-56.846 32.822h56.846v-32.822" fill="#3B0E14" sketch:type="MSShapeGroup"/><path d="M98.892 201.291l-10.743 6.205 5.375 3.102 5.368-9.307" fill="#2D070D" sketch:type="MSShapeGroup"/><path d="M111.94 193.758l-13.048 7.533-5.368 9.307 42.195 24.353-23.779-41.194" fill="#340B11" sketch:type="MSShapeGroup"/><path d="M181.844 186.218h-56.846l-13.058 7.54 23.779 41.194 38.74 22.359 7.385-12.797v-58.296" fill="#2C0B0E" sketch:type="MSShapeGroup"/><path d="M181.844 244.514l-7.385 12.797 7.385 4.262v-17.059" fill="#5A1921" sketch:type="MSShapeGroup"/><path d="M88.149 152.539v33.679h19.44l-19.44-33.679" fill="#3D0910" sketch:type="MSShapeGroup"/><path d="M88.149 99.313v53.226l19.44 33.679 32.781-56.761-52.221-30.144" fill="#34070D" sketch:type="MSShapeGroup"/><path d="M140.37 129.457l-32.781 56.761h17.409l56.846-32.822-41.474-23.939" fill="#4D0F17" sketch:type="MSShapeGroup"/><path d="M107.589 186.218h-19.44v21.278l10.743-6.205 8.697-15.073" fill="#3B070E" sketch:type="MSShapeGroup"/><path d="M107.589 186.218l-8.697 15.073 13.048-7.533-4.351-7.54" fill="#440B13" sketch:type="MSShapeGroup"/><path d="M124.998 186.218h-17.409l4.351 7.54 13.058-7.54" fill="#390B0F" sketch:type="MSShapeGroup"/><path d="M146.008 65.887l-46.57 26.904h62.105l-15.534-26.904" fill="#D43E55" sketch:type="MSShapeGroup"/><path d="M181.844 45.186l-35.836 20.701 15.534 26.904 20.301-35.162v-12.442" fill="#9A1D2C" sketch:type="MSShapeGroup"/><path d="M181.844 57.629l-20.301 35.162h20.301v-35.162" fill="#6B111E" sketch:type="MSShapeGroup"/><path d="M161.542 92.791h-62.105l-11.289 6.522 52.221 30.144 21.173-36.666" fill="#450910" sketch:type="MSShapeGroup"/><path d="M161.542 92.791l-21.173 36.666 41.474 23.939v-25.445l-20.301-35.16" fill="#66121C" sketch:type="MSShapeGroup"/><path d="M181.844 92.791h-20.301l20.301 35.16v-35.16" fill="#B72E39" sketch:type="MSShapeGroup"/><path d="M102.402-.642h-14.253v33.681l18.144-31.436-3.891-2.245" fill="#5F0F18" sketch:type="MSShapeGroup"/><path d="M106.293 1.603l-18.144 31.436v59.752h11.289l46.57-26.904-35.83-62.043-3.885-2.241" fill="#C53646" sketch:type="MSShapeGroup"/><path d="M110.178 3.844l35.83 62.043 35.836-20.701-71.665-41.342" fill="#901925" sketch:type="MSShapeGroup"/><path d="M99.438 92.791h-11.289v6.522l11.289-6.522" fill="#40070D" sketch:type="MSShapeGroup"/><path d="M107.589-.642h-5.187l3.891 2.245 1.296-2.245" fill="#770F17" sketch:type="MSShapeGroup"/><path d="M107.589-.642l-1.296 2.245 3.885 2.241-2.589-4.487" fill="#F73745" sketch:type="MSShapeGroup"/><path d="M181.844-.642h-74.255l2.589 4.487 71.665 41.342v-45.829" fill="#B41924" sketch:type="MSShapeGroup"/><path d="M275.522 532.032l-48.398 27.944h48.398v-27.944" fill="#3F0C11" sketch:type="MSShapeGroup"/><path d="M275.522 559.976h-48.398l-8.728 5.039 36.575 63.337 20.551 11.868v-80.243" fill="#390709" sketch:type="MSShapeGroup"/><path d="M181.844 501.713v58.263h33.642l-33.642-58.263" fill="#421B1F" sketch:type="MSShapeGroup"/><path d="M181.844 477.924v23.789l33.642 58.263 27.122-46.954-60.764-35.098" fill="#592629" sketch:type="MSShapeGroup"/><path d="M242.608 513.023l-27.122 46.954h11.639l48.398-27.944-32.915-19.01" fill="#3D0C11" sketch:type="MSShapeGroup"/><path d="M215.486 559.976h-33.642v26.143l27.822-16.064 5.82-10.08" fill="#220407" sketch:type="MSShapeGroup"/><path d="M215.486 559.976l-5.82 10.08 8.73-5.041-2.911-5.039" fill="#37090F" sketch:type="MSShapeGroup"/><path d="M227.125 559.976h-11.639l2.911 5.039 8.728-5.039" fill="#37070B" sketch:type="MSShapeGroup"/><path d="M252.469 437.149l-50.931 29.407h67.912l-16.981-29.407" fill="#441214" sketch:type="MSShapeGroup"/><path d="M275.522 423.837l-23.053 13.312 16.981 29.407 6.073-10.522v-32.196" fill="#290709" sketch:type="MSShapeGroup"/><path d="M275.522 456.033l-6.073 10.522h6.073v-10.522" fill="#55141B" sketch:type="MSShapeGroup"/><path d="M269.449 466.555h-67.912l-19.694 11.369 60.764 35.098 26.842-46.467" fill="#5A2629" sketch:type="MSShapeGroup"/><path d="M269.449 466.555l-26.842 46.467 32.915 19.01v-54.959l-6.073-10.518" fill="#3E0C11" sketch:type="MSShapeGroup"/><path d="M275.522 466.555h-6.073l6.073 10.518v-10.518" fill="#430B11" sketch:type="MSShapeGroup"/><path d="M181.844 369.752v3.356h5.811l-5.811-3.356" fill="#2C080C" sketch:type="MSShapeGroup"/><path d="M187.655 373.107h-5.811v58.279l26.685-46.228-20.874-12.051" fill="#590E16" sketch:type="MSShapeGroup"/><path d="M208.529 385.158l-26.685 46.228v35.168h19.694l50.931-29.407-23.064-39.937-20.876-12.053" fill="#4B1216" sketch:type="MSShapeGroup"/><path d="M229.405 397.211l23.064 39.937 23.053-13.312-46.117-26.625" fill="#2D070B" sketch:type="MSShapeGroup"/><path d="M201.537 466.555h-19.694v11.369l19.694-11.369" fill="#63272B" sketch:type="MSShapeGroup"/><path d="M205.62 356.024l-23.777 13.728 5.811 3.356h27.831l-9.865-17.084" fill="#2A080C" sketch:type="MSShapeGroup"/><path d="M235.229 338.93l-29.608 17.094 9.865 17.084 19.743-34.177" fill="#802527" sketch:type="MSShapeGroup"/><path d="M275.522 315.668l-40.294 23.262-19.743 34.177h60.037v-57.439" fill="#400C12" sketch:type="MSShapeGroup"/><path d="M215.486 373.107h-27.831l20.874 12.051 6.957-12.051" fill="#570D16" sketch:type="MSShapeGroup"/><path d="M215.486 373.107l-6.957 12.051 20.876 12.053-13.919-24.104" fill="#491216" sketch:type="MSShapeGroup"/><path d="M275.522 373.107h-60.037l13.919 24.104 46.117 26.625v-50.73" fill="#2C070B" sketch:type="MSShapeGroup"/><path d="M181.844 261.573v18.118h31.376l-31.376-18.118" fill="#5C1A21" sketch:type="MSShapeGroup"/><path d="M181.844 314.846v54.905l23.777-13.728-23.777-41.177" fill="#2D090D" sketch:type="MSShapeGroup"/><path d="M213.22 279.691h-31.376v35.156l23.777 41.177 29.608-17.094 20.155-34.89-42.164-24.349" fill="#88282A" sketch:type="MSShapeGroup"/><path d="M255.384 304.04l-20.155 34.89 40.294-23.262-20.139-11.629" fill="#440D13" sketch:type="MSShapeGroup"/><path d="M239.705 228.172l-57.861 33.401 31.376 18.118h56.23l-29.744-51.519" fill="#54181F" sketch:type="MSShapeGroup"/><path d="M275.522 207.496l-35.817 20.676 29.744 51.519 6.073-10.525v-61.67" fill="#621E1F" sketch:type="MSShapeGroup"/><path d="M275.522 269.166l-6.073 10.525h6.073v-10.525" fill="#59161D" sketch:type="MSShapeGroup"/><path d="M269.449 279.691h-56.23l42.164 24.349 14.066-24.349" fill="#7C2528" sketch:type="MSShapeGroup"/><path d="M269.449 279.691l-14.066 24.349 20.139 11.629v-25.46l-6.073-10.518" fill="#3E0C13" sketch:type="MSShapeGroup"/><path d="M275.522 279.691h-6.073l6.073 10.518v-10.518" fill="#4D171C" sketch:type="MSShapeGroup"/><path d="M181.844 153.396v32.822h33.642l-11.602-20.093-22.04-12.729" fill="#551119" sketch:type="MSShapeGroup"/><path d="M203.884 166.125l11.602 20.093 5.801-10.042-17.403-10.051" fill="#982B33" sketch:type="MSShapeGroup"/><path d="M221.287 176.176l-5.801 10.042h23.194l-17.393-10.042" fill="#8C1F26" sketch:type="MSShapeGroup"/><path d="M215.486 186.218h-33.642v58.296l33.642-58.296" fill="#3F0D11" sketch:type="MSShapeGroup"/><path d="M215.486 186.218l-33.642 58.296v17.059l57.861-33.401-24.219-41.954" fill="#801F27" sketch:type="MSShapeGroup"/><path d="M238.679 186.218h-23.194l24.219 41.954 35.817-20.676-36.843-21.278" fill="#962529" sketch:type="MSShapeGroup"/><path d="M192.863 147.035l-11.019 6.361 22.04 12.729-11.021-19.09" fill="#550F17" sketch:type="MSShapeGroup"/><path d="M260.758 107.837l-67.896 39.198 11.021 19.09 17.403 10.051 39.472-68.338" fill="#98252E" sketch:type="MSShapeGroup"/><path d="M273.792 100.312l-13.034 7.525-39.472 68.338 17.393 10.042h36.843v-82.907l-1.73-2.999" fill="#8C1C22" sketch:type="MSShapeGroup"/><path d="M275.522 99.313l-1.73.999 1.73 2.999v-3.998" fill="#781F2D" sketch:type="MSShapeGroup"/><path d="M275.522 186.218h-36.843l36.843 21.278v-21.278" fill="#962125" sketch:type="MSShapeGroup"/><path d="M181.844 45.186v12.442l5.387-9.33-5.387-3.113" fill="#871927" sketch:type="MSShapeGroup"/><path d="M187.231 48.299l-5.387 9.33v35.162h82.39l-77.003-44.492" fill="#5E0F1A" sketch:type="MSShapeGroup"/><path d="M181.844 127.951v25.445l11.019-6.361-11.019-19.084" fill="#591019" sketch:type="MSShapeGroup"/><path d="M264.233 92.791h-82.39v35.16l11.019 19.084 67.896-39.198 7.385-12.786-3.91-2.26" fill="#A02932" sketch:type="MSShapeGroup"/><path d="M268.143 95.051l-7.385 12.786 13.034-7.525-1.732-2.999-3.916-2.262" fill="#941E26" sketch:type="MSShapeGroup"/><path d="M272.059 97.313l1.732 2.999 1.73-.999-3.463-2" fill="#7F2231" sketch:type="MSShapeGroup"/><path d="M192.616 38.971l-10.772 6.215 5.387 3.113 5.385-9.328" fill="#B81B29" sketch:type="MSShapeGroup"/><path d="M226.929 19.173l-34.313 19.799-5.385 9.328 77.003 44.492h5.216l-42.52-73.618" fill="#7F101C" sketch:type="MSShapeGroup"/><path d="M275.522-.642h-14.251l-34.342 19.815 42.52 73.618 6.073-10.52v-82.913" fill="#B51626" sketch:type="MSShapeGroup"/><path d="M275.522 82.27l-6.073 10.52h6.073v-10.52" fill="#C31C2F" sketch:type="MSShapeGroup"/><path d="M269.449 92.791h-5.216l3.91 2.26 1.306-2.26" fill="#DA2C35" sketch:type="MSShapeGroup"/><path d="M269.449 92.791l-1.306 2.26 3.916 2.262-2.61-4.522" fill="#C92127" sketch:type="MSShapeGroup"/><path d="M275.522 92.791h-6.073l2.61 4.522 3.463 2v-6.522" fill="#AC2533" sketch:type="MSShapeGroup"/><path d="M215.486-.642h-33.642v45.829l10.772-6.215 22.87-39.614" fill="#9F1927" sketch:type="MSShapeGroup"/><path d="M215.486-.642l-22.87 39.614 34.313-19.799-11.443-19.815" fill="#6E0F1A" sketch:type="MSShapeGroup"/><path d="M261.271-.642h-45.786l11.443 19.815 34.342-19.815" fill="#9C1324" sketch:type="MSShapeGroup"/><path d="M275.522 532.032v27.944h47.866l-.268-.463-47.598-27.48" fill="#430D11" sketch:type="MSShapeGroup"/><path d="M323.121 559.513l.268.463.134-.233-.402-.231" fill="#480B11" sketch:type="MSShapeGroup"/><path d="M323.522 559.743l-.134.233h.534l-.4-.233" fill="#600F14" sketch:type="MSShapeGroup"/><path d="M323.388 559.976h-47.866v80.243l2.32-1.341 45.547-78.902" fill="#3C070B" sketch:type="MSShapeGroup"/><path d="M323.388 559.976l-45.547 78.902 68.32-39.451-22.773-39.451" fill="#571118" sketch:type="MSShapeGroup"/><path d="M323.922 559.976h-.534l22.773 39.451 23.045-13.308-45.285-26.143" fill="#3D0609" sketch:type="MSShapeGroup"/><path d="M299.319 518.288l-23.797 13.744 47.598 27.48-23.801-41.225" fill="#3C0C11" sketch:type="MSShapeGroup"/><path d="M369.207 477.924l-69.888 40.364 23.801 41.225.402.231 45.685-79.116v-2.703" fill="#410B11" sketch:type="MSShapeGroup"/><path d="M369.207 480.627l-45.685 79.116.4.233h45.285v-79.349" fill="#570E13" sketch:type="MSShapeGroup"/><path d="M369.207 559.976h-45.285l45.285 26.143v-26.143" fill="#370608" sketch:type="MSShapeGroup"/><path d="M275.522 423.837v32.196l13.938-24.147-13.938-8.048" fill="#2C070B" sketch:type="MSShapeGroup"/><path d="M289.46 431.885l-13.938 24.147v10.522h73.989l-60.051-34.67" fill="#5A141B" sketch:type="MSShapeGroup"/><path d="M275.522 477.074v54.959l23.797-13.744-23.797-41.214" fill="#420C11" sketch:type="MSShapeGroup"/><path d="M349.511 466.555h-73.989v10.518l23.797 41.214 69.888-40.364-19.696-11.369" fill="#480B11" sketch:type="MSShapeGroup"/><path d="M369.207 369.752l-5.813 3.356h5.813v-3.356" fill="#6F161D" sketch:type="MSShapeGroup"/><path d="M303.394 407.746l-27.872 16.091 13.938 8.048 13.934-24.139" fill="#2D070B" sketch:type="MSShapeGroup"/><path d="M333.388 390.43l-29.994 17.316-13.934 24.139 60.051 34.67h19.696v-14.076l-35.819-62.049" fill="#5D141C" sketch:type="MSShapeGroup"/><path d="M369.207 373.107h-5.813l-30.006 17.323 35.819 62.049v-79.372" fill="#8E252B" sketch:type="MSShapeGroup"/><path d="M369.207 466.555h-19.696l19.696 11.369v-11.369" fill="#4A0B12" sketch:type="MSShapeGroup"/><path d="M275.522 315.668v57.439h47.866l-25.816-44.71-22.05-12.729" fill="#460D13" sketch:type="MSShapeGroup"/><path d="M297.573 328.397l25.816 44.71 12.908-22.355-38.724-22.355" fill="#57191E" sketch:type="MSShapeGroup"/><path d="M336.296 350.752l-12.908 22.355h40.005l5.813-3.356-32.911-18.999" fill="#76181F" sketch:type="MSShapeGroup"/><path d="M323.388 373.107h-47.866v50.73l27.872-16.091 19.994-34.639" fill="#30080C" sketch:type="MSShapeGroup"/><path d="M323.388 373.107l-19.994 34.639 29.994-17.316-9.999-17.323" fill="#63171E" sketch:type="MSShapeGroup"/><path d="M363.394 373.107h-40.005l9.999 17.323 30.006-17.323" fill="#98272D" sketch:type="MSShapeGroup"/><path d="M367.458 262.582l-29.629 17.108h31.378v-14.08l-1.749-3.028" fill="#70191F" sketch:type="MSShapeGroup"/><path d="M369.207 261.573l-1.749 1.009 1.749 3.028v-4.038" fill="#7D1C22" sketch:type="MSShapeGroup"/><path d="M286.547 309.303l-11.025 6.365 22.05 12.729-11.025-19.094" fill="#4D0E14" sketch:type="MSShapeGroup"/><path d="M369.207 279.691h-31.378l-51.282 29.612 11.025 19.094 38.724 22.355 32.911-56.99v-14.072" fill="#611A1F" sketch:type="MSShapeGroup"/><path d="M369.207 293.762l-32.911 56.99 32.911 18.999v-75.989" fill="#83191F" sketch:type="MSShapeGroup"/><path d="M275.522 207.496v61.67l26.696-46.261-26.696-15.409" fill="#5F1D1F" sketch:type="MSShapeGroup"/><path d="M302.218 222.905l-26.696 46.261v10.525h62.307l29.629-17.108-1.747-3.026-63.493-36.652" fill="#56161C" sketch:type="MSShapeGroup"/><path d="M365.711 259.556l1.747 3.026 1.749-1.009-3.496-2.017" fill="#60191D" sketch:type="MSShapeGroup"/><path d="M275.522 290.209v25.46l11.025-6.365-11.025-19.094" fill="#3C0C12" sketch:type="MSShapeGroup"/><path d="M337.829 279.691h-62.307v10.518l11.025 19.094 51.282-29.612" fill="#4B171B" sketch:type="MSShapeGroup"/><path d="M320.632 181.445l-8.265 4.773h11.021l-2.756-4.773" fill="#761B21" sketch:type="MSShapeGroup"/><path d="M328.901 176.672l-8.269 4.773 2.756 4.773 5.513-9.546" fill="#651F2A" sketch:type="MSShapeGroup"/><path d="M369.207 153.396l-40.306 23.276-5.513 9.546h45.819v-32.822" fill="#A52D3E" sketch:type="MSShapeGroup"/><path d="M323.388 186.218h-11.021l-36.845 21.278 26.696 15.409 21.171-36.687" fill="#7E1F23" sketch:type="MSShapeGroup"/><path d="M323.388 186.218l-21.171 36.687 63.493 36.652-42.323-73.338" fill="#73181F" sketch:type="MSShapeGroup"/><path d="M369.207 186.218h-45.819l42.323 73.338 3.496 2.017v-75.355" fill="#801B21" sketch:type="MSShapeGroup"/><path d="M275.522 103.311v82.907h36.845l8.265-4.773-45.11-78.134" fill="#B8232A" sketch:type="MSShapeGroup"/><path d="M275.522 99.313v3.998l45.11 78.134 8.269-4.773 20.155-34.909-73.534-42.45" fill="#9E2837" sketch:type="MSShapeGroup"/><path d="M349.056 141.763l-20.155 34.909 40.306-23.276-20.151-11.633" fill="#FF3950" sketch:type="MSShapeGroup"/><path d="M312.367 186.218h-36.845v21.278l36.845-21.278" fill="#C5292D" sketch:type="MSShapeGroup"/><path d="M354.69 53.573l-67.879 39.218h82.396v-14.074l-14.517-25.144" fill="#8B1A29" sketch:type="MSShapeGroup"/><path d="M369.207 45.186l-14.517 8.386 14.517 25.144v-33.531" fill="#A32C39" sketch:type="MSShapeGroup"/><path d="M369.207 92.791h-82.396l-11.289 6.522 73.534 42.45 20.151-34.901v-14.072" fill="#7B222D" sketch:type="MSShapeGroup"/><path d="M369.207 106.863l-20.151 34.901 20.151 11.633v-46.533" fill="#C83142" sketch:type="MSShapeGroup"/><path d="M289.773-.642h-14.251v82.913l39.468-68.365-25.216-14.548" fill="#9C1323" sketch:type="MSShapeGroup"/><path d="M314.99 13.905l-39.468 68.365v10.52h11.289l67.879-39.218-14.513-25.134-25.188-14.533" fill="#A91A2B" sketch:type="MSShapeGroup"/><path d="M340.177 28.439l14.513 25.134 14.517-8.386-29.03-16.748" fill="#C62C3B" sketch:type="MSShapeGroup"/><path d="M286.811 92.791h-11.289v6.522l11.289-6.522" fill="#95222F" sketch:type="MSShapeGroup"/><path d="M323.388-.642h-33.615l25.216 14.548 8.399-14.548" fill="#911321" sketch:type="MSShapeGroup"/><path d="M323.388-.642l-8.399 14.548 25.188 14.533-16.789-29.081" fill="#9D1929" sketch:type="MSShapeGroup"/><path d="M369.207-.642h-45.819l16.789 29.081 29.03 16.748v-45.829" fill="#B82A38" sketch:type="MSShapeGroup"/><path d="M427.074 552.709l-12.587 7.268h16.781l-4.194-7.268" fill="#560E13" sketch:type="MSShapeGroup"/><path d="M439.663 545.439l-12.589 7.27 4.194 7.268 8.394-14.537" fill="#440810" sketch:type="MSShapeGroup"/><path d="M462.885 532.032l-23.222 13.406-8.394 14.537h31.617v-27.944" fill="#5D0F19" sketch:type="MSShapeGroup"/><path d="M431.269 559.976h-16.781l-45.281 26.143 35.228 20.345 26.834-46.488" fill="#370608" sketch:type="MSShapeGroup"/><path d="M431.269 559.976l-26.834 46.488 58.45 33.755v-25.486l-31.617-54.757" fill="#480C12" sketch:type="MSShapeGroup"/><path d="M462.885 559.976h-31.617l31.617 54.757v-54.757" fill="#741E24" sketch:type="MSShapeGroup"/><path d="M369.207 477.924v2.703l1.168-2.027-1.168-.676" fill="#4D0C12" sketch:type="MSShapeGroup"/><path d="M370.375 478.6l-1.168 2.027v79.349h45.281l12.587-7.268-35.828-62.053-20.872-12.055" fill="#671016" sketch:type="MSShapeGroup"/><path d="M391.247 490.655l35.828 62.053 12.589-7.27 11.616-20.11-60.033-34.674" fill="#510911" sketch:type="MSShapeGroup"/><path d="M451.279 525.329l-11.616 20.11 23.222-13.406-11.606-6.703" fill="#6F111B" sketch:type="MSShapeGroup"/><path d="M414.488 559.976h-45.281v26.143l45.281-26.143" fill="#410609" sketch:type="MSShapeGroup"/><path d="M461.141 424.846l-72.24 41.709h73.985v-38.687l-1.745-3.022" fill="#651F23" sketch:type="MSShapeGroup"/><path d="M462.885 423.837l-1.745 1.009 1.745 3.022v-4.031" fill="#650F13" sketch:type="MSShapeGroup"/><path d="M371.545 476.575l-2.338 1.349 1.168.676 1.17-2.025" fill="#4A0C11" sketch:type="MSShapeGroup"/><path d="M380.224 471.565l-8.679 5.01-1.17 2.025 20.872 12.055-11.023-19.09" fill="#630F14" sketch:type="MSShapeGroup"/><path d="M462.885 466.555h-73.985l-8.677 5.01 11.023 19.09 60.033 34.674 11.606-20.097v-38.677" fill="#4E0810" sketch:type="MSShapeGroup"/><path d="M462.885 505.232l-11.606 20.097 11.606 6.703v-26.801" fill="#6C101A" sketch:type="MSShapeGroup"/><path d="M369.207 369.752v3.356h5.811l-5.811-3.356" fill="#6A171E" sketch:type="MSShapeGroup"/><path d="M369.207 452.479v14.076h8.125l-8.125-14.076" fill="#59161C" sketch:type="MSShapeGroup"/><path d="M375.018 373.107h-5.811v79.372l8.125 14.076 39.877-69.088-42.191-24.359" fill="#88262C" sketch:type="MSShapeGroup"/><path d="M417.209 397.467l-39.877 69.088h11.569l72.24-41.709-1.745-3.024-42.187-24.355" fill="#5F1F25" sketch:type="MSShapeGroup"/><path d="M459.396 421.822l1.745 3.024 1.745-1.009-3.49-2.015" fill="#5F0F13" sketch:type="MSShapeGroup"/><path d="M377.332 466.555h-8.125v11.369l2.338-1.349 5.787-10.02" fill="#460C12" sketch:type="MSShapeGroup"/><path d="M377.332 466.555l-5.787 10.02 8.679-5.01-2.892-5.01" fill="#5E0F16" sketch:type="MSShapeGroup"/><path d="M388.901 466.555h-11.569l2.892 5.01 8.677-5.01" fill="#4A0911" sketch:type="MSShapeGroup"/><path d="M414.3 343.717l-45.093 26.034 5.811 3.356h56.25l-16.968-29.39" fill="#84181F" sketch:type="MSShapeGroup"/><path d="M462.885 315.668l-48.585 28.049 16.968 29.39 31.617-54.742v-2.697" fill="#781721" sketch:type="MSShapeGroup"/><path d="M462.885 318.365l-31.617 54.742h31.617v-54.742" fill="#BA3034" sketch:type="MSShapeGroup"/><path d="M431.269 373.107h-56.25l42.191 24.359 14.06-24.359" fill="#AA282F" sketch:type="MSShapeGroup"/><path d="M431.269 373.107l-14.06 24.359 42.187 24.355-28.127-48.715" fill="#772228" sketch:type="MSShapeGroup"/><path d="M462.885 373.107h-31.617l28.127 48.715 3.49 2.015v-50.73" fill="#771016" sketch:type="MSShapeGroup"/><path d="M369.207 265.61v14.08h8.125l-8.125-14.08" fill="#77181E" sketch:type="MSShapeGroup"/><path d="M369.207 261.573v4.038l8.125 14.08 5.811-10.069-13.936-8.048" fill="#851B1F" sketch:type="MSShapeGroup"/><path d="M383.143 269.621l-5.811 10.069h23.249l-17.438-10.069" fill="#96252E" sketch:type="MSShapeGroup"/><path d="M377.332 279.691h-8.125v14.072l8.125-14.072" fill="#68191D" sketch:type="MSShapeGroup"/><path d="M377.332 279.691l-8.125 14.072v75.989l45.093-26.034-36.969-64.027" fill="#8C181E" sketch:type="MSShapeGroup"/><path d="M400.581 279.691h-23.249l36.969 64.027 48.585-28.049-62.305-35.978" fill="#80161F" sketch:type="MSShapeGroup"/><path d="M397.066 245.49l-27.859 16.082 13.936 8.048 13.924-24.131" fill="#711A1F" sketch:type="MSShapeGroup"/><path d="M448.383 215.868l-51.317 29.623-13.924 24.131 17.438 10.069h62.305v-38.697l-14.502-25.126" fill="#80242C" sketch:type="MSShapeGroup"/><path d="M462.885 207.496l-14.502 8.372 14.502 25.126v-33.498" fill="#961D2B" sketch:type="MSShapeGroup"/><path d="M462.885 279.691h-62.305l62.305 35.978v-35.978" fill="#6D141F" sketch:type="MSShapeGroup"/><path d="M369.207 153.396v32.822h56.835l-56.835-32.822" fill="#8A2A3A" sketch:type="MSShapeGroup"/><path d="M426.042 186.218h-56.835v75.355l27.859-16.082 32.896-57.008-3.92-2.264" fill="#6B191E" sketch:type="MSShapeGroup"/><path d="M429.963 188.482l-32.896 57.008 51.317-29.623-14.5-25.122-3.92-2.264" fill="#79232C" sketch:type="MSShapeGroup"/><path d="M433.883 190.746l14.5 25.122 14.502-8.372-29.003-16.75" fill="#8E1D2B" sketch:type="MSShapeGroup"/><path d="M401.543 134.728l-32.336 18.668 56.835 32.822h5.226l-29.726-51.49" fill="#A52B3B" sketch:type="MSShapeGroup"/><path d="M462.885 99.313l-61.343 35.416 29.726 51.49 31.617-54.749v-32.157" fill="#B4232F" sketch:type="MSShapeGroup"/><path d="M462.885 131.469l-31.617 54.749h31.617v-54.749" fill="#881826" sketch:type="MSShapeGroup"/><path d="M431.269 186.218h-5.226l3.92 2.264 1.306-2.264" fill="#801A1F" sketch:type="MSShapeGroup"/><path d="M431.269 186.218l-1.306 2.264 3.92 2.264-2.614-4.528" fill="#91242D" sketch:type="MSShapeGroup"/><path d="M462.885 186.218h-31.617l2.614 4.528 29.003 16.75v-21.278" fill="#AA1E2C" sketch:type="MSShapeGroup"/><path d="M369.207 78.717v14.074h8.125l-8.125-14.074" fill="#FF1F31" sketch:type="MSShapeGroup"/><path d="M369.207 45.186v33.531l8.125 14.074 18.575-32.177-26.7-15.427" fill="#FF3644" sketch:type="MSShapeGroup"/><path d="M395.907 60.614l-18.575 32.177h74.267l-55.692-32.177" fill="#FF4252" sketch:type="MSShapeGroup"/><path d="M377.332 92.791h-8.125v14.072l8.125-14.072" fill="#E82936" sketch:type="MSShapeGroup"/><path d="M377.332 92.791l-8.125 14.072v46.533l32.336-18.668-24.211-41.937" fill="#FF3C4F" sketch:type="MSShapeGroup"/><path d="M451.599 92.791h-74.267l24.211 41.937 61.343-35.416-11.287-6.522" fill="#FF313E" sketch:type="MSShapeGroup"/><path d="M422.596 14.381l-53.389 30.805 26.7 15.427 26.689-46.233" fill="#FF3A48" sketch:type="MSShapeGroup"/><path d="M435.609 6.872l-13.013 7.509-26.689 46.233 55.692 32.177h11.287v-38.681l-27.276-47.238" fill="#FF4757" sketch:type="MSShapeGroup"/><path d="M462.885-.642h-14.251l-13.025 7.515 27.276 47.238v-54.753" fill="#AB131F" sketch:type="MSShapeGroup"/><path d="M462.885 92.791h-11.287l11.287 6.522v-6.522" fill="#FF3541" sketch:type="MSShapeGroup"/><path d="M431.269-.642h-62.062v45.829l53.389-30.805 8.673-15.024" fill="#C82E40" sketch:type="MSShapeGroup"/><path d="M431.269-.642l-8.673 15.024 13.013-7.509-4.34-7.515" fill="#F2384D" sketch:type="MSShapeGroup"/><path d="M448.634-.642h-17.366l4.34 7.515 13.025-7.515" fill="#7E0F1B" sketch:type="MSShapeGroup"/><path d="M462.885 532.032v27.944h48.42l-48.42-27.944" fill="#590F19" sketch:type="MSShapeGroup"/><path d="M511.306 559.976h-48.42v54.757l11.037 19.115 33.885-19.558 24.39-42.259-20.893-12.055" fill="#6E1E23" sketch:type="MSShapeGroup"/><path d="M507.991 505.994l-45.106 26.038 48.42 27.944h27.851l-31.166-53.982" fill="#68101A" sketch:type="MSShapeGroup"/><path d="M556.609 477.924l-48.618 28.07 31.166 53.982 17.452-30.222v-51.83" fill="#631216" sketch:type="MSShapeGroup"/><path d="M556.609 529.754l-17.452 30.222h17.452v-30.222" fill="#44070D" sketch:type="MSShapeGroup"/><path d="M539.157 559.976h-27.851l20.893 12.055 6.959-12.055" fill="#821F26" sketch:type="MSShapeGroup"/><path d="M539.157 559.976l-6.959 12.055 20.874 12.047-13.915-24.102" fill="#5D0910" sketch:type="MSShapeGroup"/><path d="M556.609 559.976h-17.452l13.915 24.102 3.537 2.041v-26.143" fill="#530813" sketch:type="MSShapeGroup"/><path d="M462.885 427.868v38.687h22.337l-22.337-38.687" fill="#671F24" sketch:type="MSShapeGroup"/><path d="M462.885 423.837v4.031l22.337 38.687 12.914-22.376-35.251-20.342" fill="#670F13" sketch:type="MSShapeGroup"/><path d="M498.136 444.179l-12.914 22.376h51.685l-38.771-22.376" fill="#5E0D10" sketch:type="MSShapeGroup"/><path d="M485.222 466.555h-22.337v38.677l22.337-38.677" fill="#510910" sketch:type="MSShapeGroup"/><path d="M485.222 466.555l-22.337 38.677v26.801l45.106-26.038-22.769-39.439" fill="#6F101B" sketch:type="MSShapeGroup"/><path d="M536.907 466.555h-51.685l22.769 39.439 48.618-28.07-19.702-11.369" fill="#691316" sketch:type="MSShapeGroup"/><path d="M556.609 369.752l-5.813 3.356h5.813v-3.356" fill="#6A131F" sketch:type="MSShapeGroup"/><path d="M533.344 383.177l-70.458 40.66 35.251 20.342 35.207-61.003" fill="#640F13" sketch:type="MSShapeGroup"/><path d="M542.066 378.144l-8.722 5.033-35.207 61.003 38.771 22.376h19.702v-63.217l-14.544-25.194" fill="#5A0D10" sketch:type="MSShapeGroup"/><path d="M556.609 373.107h-5.813l-8.73 5.037 14.544 25.194v-30.231" fill="#84232A" sketch:type="MSShapeGroup"/><path d="M556.609 466.555h-19.702l19.702 11.369v-11.369" fill="#651216" sketch:type="MSShapeGroup"/><path d="M462.885 315.668v2.697l1.168-2.023-1.168-.674" fill="#6A161E" sketch:type="MSShapeGroup"/><path d="M464.053 316.342l-1.168 2.023v54.742h76.272l-11.627-20.137-63.477-36.629" fill="#A32D2E" sketch:type="MSShapeGroup"/><path d="M527.53 352.971l11.627 20.137 5.815-10.071-17.442-10.065" fill="#801D26" sketch:type="MSShapeGroup"/><path d="M544.972 363.036l-5.815 10.071h11.639l5.813-3.356-11.637-6.716" fill="#6F131F" sketch:type="MSShapeGroup"/><path d="M539.157 373.107h-76.272v50.73l70.458-40.66 5.813-10.069" fill="#680F13" sketch:type="MSShapeGroup"/><path d="M539.157 373.107l-5.813 10.069 8.722-5.033-2.909-5.037" fill="#5E0D10" sketch:type="MSShapeGroup"/><path d="M550.796 373.107h-11.639l2.909 5.037 8.73-5.037" fill="#8A242A" sketch:type="MSShapeGroup"/><path d="M556.609 261.573l-31.39 18.118h31.39v-18.118" fill="#8D242B" sketch:type="MSShapeGroup"/><path d="M465.222 314.319l-2.336 1.349 1.168.674 1.168-2.023" fill="#70161F" sketch:type="MSShapeGroup"/><path d="M495.219 297.007l-29.998 17.312-1.168 2.023 63.477 36.629-32.311-55.964" fill="#AD2F31" sketch:type="MSShapeGroup"/><path d="M556.609 279.691h-31.39l-30 17.316 32.311 55.964 17.442 10.065 11.637-20.151v-63.195" fill="#881F28" sketch:type="MSShapeGroup"/><path d="M556.609 342.885l-11.637 20.151 11.637 6.716v-26.867" fill="#761321" sketch:type="MSShapeGroup"/><path d="M462.885 240.993v38.697h22.337l-22.337-38.697" fill="#91242D" sketch:type="MSShapeGroup"/><path d="M462.885 207.496v33.498l22.337 38.697 25.674-44.494-48.01-27.701" fill="#AA1E2C" sketch:type="MSShapeGroup"/><path d="M510.896 235.197l-25.674 44.494h39.997l31.39-18.118-45.713-26.376" fill="#9B232B" sketch:type="MSShapeGroup"/><path d="M485.222 279.691h-22.337v35.978l2.336-1.349 20.001-34.629" fill="#7B161F" sketch:type="MSShapeGroup"/><path d="M485.222 279.691l-20.001 34.629 29.998-17.312-9.997-17.316" fill="#BE2D31" sketch:type="MSShapeGroup"/><path d="M525.219 279.691h-39.997l9.997 17.316 30-17.316" fill="#961E27" sketch:type="MSShapeGroup"/><path d="M529.306 169.157l-29.561 17.061h39.412l-9.851-17.061" fill="#811926" sketch:type="MSShapeGroup"/><path d="M556.609 153.396l-27.303 15.761 9.851 17.061 17.452-30.224v-2.598" fill="#721425" sketch:type="MSShapeGroup"/><path d="M556.609 155.994l-17.452 30.224h17.452v-30.224M539.157 186.218h-39.412l-36.86 21.278 48.01 27.701 28.261-48.979" fill="#A01E2C" sketch:type="MSShapeGroup"/><path d="M539.157 186.218l-28.261 48.979 45.713 26.376v-45.116l-17.452-30.239" fill="#92242B" sketch:type="MSShapeGroup"/><path d="M556.609 186.218h-17.452l17.452 30.239v-30.239" fill="#A01B26" sketch:type="MSShapeGroup"/><path d="M462.885 99.313v32.157l13.93-24.118-13.93-8.038" fill="#B4232D" sketch:type="MSShapeGroup"/><path d="M476.815 107.351l-13.93 24.118v54.749h36.86l29.561-17.061-27.281-47.258-25.21-14.548" fill="#881825" sketch:type="MSShapeGroup"/><path d="M502.025 121.899l27.281 47.258 27.303-15.761-54.584-31.497" fill="#791324" sketch:type="MSShapeGroup"/><path d="M499.745 186.218h-36.86v21.278l36.86-21.278" fill="#AA1D2B" sketch:type="MSShapeGroup"/><path d="M482.46 88.008l-8.281 4.783h11.044l-2.762-4.783" fill="#A13444" sketch:type="MSShapeGroup"/><path d="M490.745 83.224l-8.285 4.783 2.762 4.783 5.523-9.567" fill="#530E18" sketch:type="MSShapeGroup"/><path d="M556.609 45.186l-65.864 38.038-5.523 9.567h71.387v-47.605" fill="#A72C3C" sketch:type="MSShapeGroup"/><path d="M485.222 92.791h-11.044l-11.293 6.522 13.93 8.038 8.407-14.56" fill="#B12733" sketch:type="MSShapeGroup"/><path d="M485.222 92.791l-8.407 14.56 25.21 14.548-16.803-29.108" fill="#861B2A" sketch:type="MSShapeGroup"/><path d="M556.609 92.791h-71.387l16.803 29.108 54.584 31.497v-60.605" fill="#781729" sketch:type="MSShapeGroup"/><path d="M462.885 54.11v38.681h11.293l8.281-4.783-19.574-33.897" fill="#BD313F" sketch:type="MSShapeGroup"/><path d="M477.145-.642h-14.259v54.753l19.574 33.897 8.285-4.783 32.923-57.035-46.523-26.832" fill="#620D16" sketch:type="MSShapeGroup"/><path d="M523.668 26.189l-32.923 57.035 65.864-38.038-32.941-18.997" fill="#C52938" sketch:type="MSShapeGroup"/><path d="M474.178 92.791h-11.293v6.522l11.293-6.522" fill="#D0242F" sketch:type="MSShapeGroup"/><path d="M539.157-.642h-62.012l46.523 26.832 15.489-26.832" fill="#68101B" sketch:type="MSShapeGroup"/><path d="M539.157-.642l-15.489 26.832 32.941 18.997v-15.602l-17.452-30.226" fill="#D13042" sketch:type="MSShapeGroup"/><path d="M556.609-.642h-17.452l17.452 30.226v-30.226" fill="#FF6E84" sketch:type="MSShapeGroup"/><path d="M635.755 540.417l-33.868 19.56h45.159l-11.291-19.56" fill="#3A070C" sketch:type="MSShapeGroup"/><path d="M650.275 532.032l-14.521 8.384 11.291 19.56 3.23-5.589v-22.355" fill="#862F39" sketch:type="MSShapeGroup"/><path d="M650.275 554.387l-3.23 5.589h3.23v-5.589" fill="#56131A" sketch:type="MSShapeGroup"/><path d="M647.045 559.976h-45.159l-45.277 26.143 56.508 32.637 33.928-58.78" fill="#460812" sketch:type="MSShapeGroup"/><path d="M647.045 559.976l-33.928 58.78 37.158 21.463v-74.654l-3.23-5.589" fill="#6E131D" sketch:type="MSShapeGroup"/><path d="M650.275 559.976h-3.23l3.23 5.589v-5.589" fill="#812128" sketch:type="MSShapeGroup"/><path d="M556.609 477.924v51.83l22.446-38.864-22.446-12.966" fill="#761317" sketch:type="MSShapeGroup"/><path d="M579.055 490.89l-22.446 38.864v30.222h45.277l33.868-19.56-14.531-25.167-42.168-24.359" fill="#51080D" sketch:type="MSShapeGroup"/><path d="M621.223 515.249l14.531 25.167 14.521-8.384-29.052-16.783" fill="#BD3540" sketch:type="MSShapeGroup"/><path d="M601.886 559.976h-45.277v26.143l45.277-26.143" fill="#630913" sketch:type="MSShapeGroup"/><path d="M588.906 459.275l-12.605 7.28h16.808l-4.202-7.28" fill="#510C10" sketch:type="MSShapeGroup"/><path d="M601.511 451.997l-12.605 7.278 4.202 7.28 8.403-14.558" fill="#772228" sketch:type="MSShapeGroup"/><path d="M650.275 423.837l-48.764 28.16-8.403 14.558h57.167v-42.718" fill="#711D23" sketch:type="MSShapeGroup"/><path d="M593.108 466.555h-16.808l-19.692 11.369 22.446 12.966 14.053-24.335" fill="#5B1114" sketch:type="MSShapeGroup"/><path d="M593.108 466.555l-14.053 24.335 42.168 24.359-28.115-48.694" fill="#3E070C" sketch:type="MSShapeGroup"/><path d="M650.275 466.555h-57.167l28.115 48.694 29.052 16.783v-65.477" fill="#91303A" sketch:type="MSShapeGroup"/><path d="M556.609 369.752v3.356h5.811l-5.811-3.356" fill="#66131F" sketch:type="MSShapeGroup"/><path d="M556.609 403.338v63.217h19.692l12.605-7.28-32.297-55.937" fill="#560D10" sketch:type="MSShapeGroup"/><path d="M562.421 373.107h-5.811v30.231l32.297 55.937 12.605-7.278 24.38-42.24-63.471-36.649" fill="#7E242A" sketch:type="MSShapeGroup"/><path d="M625.891 409.757l-24.38 42.24 48.764-28.16-24.384-14.08" fill="#781E24" sketch:type="MSShapeGroup"/><path d="M576.301 466.555h-19.692v11.369l19.692-11.369" fill="#601216" sketch:type="MSShapeGroup"/><path d="M622.98 331.427l-66.371 38.324 5.811 3.356h84.625l-24.065-41.68" fill="#72131F" sketch:type="MSShapeGroup"/><path d="M650.275 315.668l-27.295 15.759 24.065 41.68 3.23-5.589v-51.85" fill="#781B22" sketch:type="MSShapeGroup"/><path d="M650.275 367.519l-3.23 5.589h3.23v-5.589" fill="#E3414A" sketch:type="MSShapeGroup"/><path d="M647.045 373.107h-84.625l63.471 36.649 21.154-36.649" fill="#8E232A" sketch:type="MSShapeGroup"/><path d="M647.045 373.107l-21.154 36.649 24.384 14.08v-45.141l-3.23-5.589" fill="#861E24" sketch:type="MSShapeGroup"/><path d="M650.275 373.107h-3.23l3.23 5.589v-5.589" fill="#89111E" sketch:type="MSShapeGroup"/><path d="M556.609 261.573v18.118h31.372l-31.372-18.118" fill="#832229" sketch:type="MSShapeGroup"/><path d="M587.981 279.691h-31.372v63.195l35.216-60.974-3.844-2.221" fill="#7E1D26" sketch:type="MSShapeGroup"/><path d="M591.825 281.911l-35.216 60.974v26.867l66.371-38.324-27.307-47.293-3.848-2.223" fill="#6D131F" sketch:type="MSShapeGroup"/><path d="M595.673 284.134l27.307 47.293 27.295-15.759-54.602-31.534" fill="#731B22" sketch:type="MSShapeGroup"/><path d="M576.142 250.296l-19.533 11.276 31.372 18.118h5.127l-16.966-29.394" fill="#A8262C" sketch:type="MSShapeGroup"/><path d="M627.022 220.921l-50.88 29.376 16.966 29.394 33.914-58.77" fill="#B81C27" sketch:type="MSShapeGroup"/><path d="M650.275 207.496l-23.253 13.425-33.914 58.77h57.167v-72.195" fill="#B43944" sketch:type="MSShapeGroup"/><path d="M593.108 279.691h-5.127l3.844 2.221 1.283-2.221" fill="#A21F28" sketch:type="MSShapeGroup"/><path d="M593.108 279.691l-1.283 2.221 3.848 2.223-2.565-4.443" fill="#8D1421" sketch:type="MSShapeGroup"/><path d="M650.275 279.691h-57.167l2.565 4.443 54.602 31.534v-35.978" fill="#941D25" sketch:type="MSShapeGroup"/><path d="M556.609 153.396v2.598l1.125-1.947-1.125-.651" fill="#701424" sketch:type="MSShapeGroup"/><path d="M557.734 154.047l-1.125 1.947v30.224h56.829l-55.704-32.171" fill="#9D1E2B" sketch:type="MSShapeGroup"/><path d="M556.609 216.457v45.116l19.533-11.276-19.533-33.84" fill="#8F232A" sketch:type="MSShapeGroup"/><path d="M613.439 186.218h-56.829v30.239l19.533 33.84 50.88-29.376 11.623-20.143-25.206-14.56" fill="#9D1A26" sketch:type="MSShapeGroup"/><path d="M638.645 200.778l-11.623 20.143 23.253-13.425-11.631-6.718" fill="#9A3541" sketch:type="MSShapeGroup"/><path d="M558.861 152.096l-2.252 1.3 1.125.651 1.127-1.951" fill="#691323" sketch:type="MSShapeGroup"/><path d="M610.225 122.438l-51.364 29.658-1.127 1.951 55.704 32.171h33.607l-36.82-63.78" fill="#921D2A" sketch:type="MSShapeGroup"/><path d="M650.275 99.313l-40.051 23.126 36.82 63.78 3.23-5.587v-81.319" fill="#FF6066" sketch:type="MSShapeGroup"/><path d="M650.275 180.631l-3.23 5.587h3.23v-5.587" fill="#FF6D70" sketch:type="MSShapeGroup"/><path d="M647.045 186.218h-33.607l25.206 14.56 8.401-14.56" fill="#921925" sketch:type="MSShapeGroup"/><path d="M647.045 186.218l-8.401 14.56 11.631 6.718v-15.685l-3.23-5.593" fill="#903340" sketch:type="MSShapeGroup"/><path d="M650.275 186.218h-3.23l3.23 5.593v-5.593" fill="#B1232F" sketch:type="MSShapeGroup"/><path d="M556.609 45.186v47.605h36.499l-22.977-39.791-13.522-7.814" fill="#962735" sketch:type="MSShapeGroup"/><path d="M570.131 53l22.977 39.791 11.476-19.881-34.454-19.91" fill="#E75C69" sketch:type="MSShapeGroup"/><path d="M604.585 72.91l-11.476 19.881h45.88l-34.404-19.881" fill="#BE3B43" sketch:type="MSShapeGroup"/><path d="M593.108 92.791h-36.499v60.605l2.252-1.3 34.248-59.305" fill="#6B1424" sketch:type="MSShapeGroup"/><path d="M593.108 92.791l-34.248 59.305 51.364-29.658-17.117-29.648" fill="#961D2B" sketch:type="MSShapeGroup"/><path d="M638.989 92.791h-45.88l17.117 29.648 40.051-23.126-11.287-6.522" fill="#FF6367" sketch:type="MSShapeGroup"/><path d="M563.368 41.287l-6.759 3.9 13.522 7.814-6.763-11.713" fill="#FF2F3F" sketch:type="MSShapeGroup"/><path d="M647.045-.642h-11.019l-72.658 41.929 6.763 11.713 34.454 19.91 42.461-73.552" fill="#FF6C7E" sketch:type="MSShapeGroup"/><path d="M647.045-.642l-42.461 73.552 34.404 19.881h11.287v-87.845l-3.23-5.589" fill="#FF4650" sketch:type="MSShapeGroup"/><path d="M650.275-.642h-3.23l3.23 5.589v-5.589" fill="#FF495A" sketch:type="MSShapeGroup"/><path d="M650.275 92.791h-11.287l11.287 6.522v-6.522" fill="#FF757B" sketch:type="MSShapeGroup"/><path d="M556.609 29.584v15.602l6.759-3.9-6.759-11.703" fill="#FF374B" sketch:type="MSShapeGroup"/><path d="M636.026-.642h-79.417v30.226l6.759 11.703 72.658-41.929" fill="#FF8196" sketch:type="MSShapeGroup"/><path d="M650.275 532.032v22.355l9.686-16.764-9.686-5.591" fill="#9E303B" sketch:type="MSShapeGroup"/><path d="M659.962 537.623l-9.686 16.764v5.589h48.406l-38.72-22.353" fill="#66131B" sketch:type="MSShapeGroup"/><path d="M698.681 559.976h-48.406v5.589l32.34 55.981 55.181-31.86 3.086-5.35-42.201-24.36" fill="#97212A" sketch:type="MSShapeGroup"/><path d="M669.662 520.836l-19.387 11.196 9.686 5.591 9.701-16.787" fill="#96313B" sketch:type="MSShapeGroup"/><path d="M716.684 493.683l-47.022 27.153-9.701 16.787 38.72 22.353h45.291v-19.001l-27.289-47.291" fill="#60131B" sketch:type="MSShapeGroup"/><path d="M743.972 477.924l-27.289 15.759 27.289 47.291v-63.05" fill="#8E1327" sketch:type="MSShapeGroup"/><path d="M743.972 559.976h-45.291l42.201 24.36 3.09-5.356v-19.004" fill="#90222A" sketch:type="MSShapeGroup"/><path d="M650.275 423.837v42.718h50.754l-11.631-20.132-39.124-22.586" fill="#691C22" sketch:type="MSShapeGroup"/><path d="M689.399 446.423l11.631 20.132 5.807-10.067-17.438-10.065" fill="#6B101C" sketch:type="MSShapeGroup"/><path d="M706.837 456.488l-5.807 10.067h23.245l-17.438-10.067" fill="#77303B" sketch:type="MSShapeGroup"/><path d="M701.03 466.555h-50.754v65.477l19.387-11.196 31.368-54.281" fill="#872F39" sketch:type="MSShapeGroup"/><path d="M701.03 466.555l-31.368 54.281 47.022-27.153-15.654-27.128" fill="#57131A" sketch:type="MSShapeGroup"/><path d="M724.275 466.555h-23.245l15.654 27.128 27.289-15.759-19.698-11.369" fill="#801325" sketch:type="MSShapeGroup"/><path d="M743.972 369.752l-5.813 3.356h5.813v-3.356" fill="#D3414A" sketch:type="MSShapeGroup"/><path d="M669.831 412.55l-19.556 11.287 39.124 22.586-19.568-33.873" fill="#7D1E24" sketch:type="MSShapeGroup"/><path d="M743.972 373.107h-5.813l-68.328 39.443 19.568 33.873 17.438 10.065 37.136-64.375v-19.006" fill="#80111D" sketch:type="MSShapeGroup"/><path d="M743.972 392.113l-37.136 64.375 17.438 10.067h19.698v-74.442" fill="#8D333F" sketch:type="MSShapeGroup"/><path d="M743.972 466.555h-19.698l19.698 11.369v-11.369" fill="#981327" sketch:type="MSShapeGroup"/><path d="M650.275 315.668v51.85l22.468-38.883-22.468-12.968" fill="#8A1C24" sketch:type="MSShapeGroup"/><path d="M672.744 328.636l-22.468 38.883v5.589h87.884l5.813-3.356-71.229-41.116" fill="#FF454E" sketch:type="MSShapeGroup"/><path d="M650.275 378.696v45.141l19.556-11.287-19.556-33.854" fill="#9B1F26" sketch:type="MSShapeGroup"/><path d="M738.159 373.107h-87.884v5.589l19.556 33.854 68.328-39.443" fill="#9E121F" sketch:type="MSShapeGroup"/><path d="M743.972 261.573l-31.38 18.118h31.38v-18.118" fill="#B74856" sketch:type="MSShapeGroup"/><path d="M695.239 289.708l-44.964 25.96 22.468 12.968 22.495-38.928" fill="#721C23" sketch:type="MSShapeGroup"/><path d="M703.918 284.698l-8.679 5.01-22.495 38.928 71.229 41.116v-15.644l-40.055-69.41" fill="#D9434C" sketch:type="MSShapeGroup"/><path d="M743.972 279.691h-31.38l-8.675 5.008 40.055 69.41v-74.417" fill="#E7666E" sketch:type="MSShapeGroup"/><path d="M650.275 207.496v72.195h50.754l-37.167-64.354-13.588-7.84" fill="#8C323D" sketch:type="MSShapeGroup"/><path d="M663.863 215.336l37.167 64.354 18.563-32.188-55.729-32.167" fill="#AC222D" sketch:type="MSShapeGroup"/><path d="M719.592 247.503l-18.563 32.188h11.563l31.38-18.118-24.38-14.07" fill="#B74351" sketch:type="MSShapeGroup"/><path d="M701.03 279.691h-50.754v35.978l44.964-25.96 5.791-10.018" fill="#721A21" sketch:type="MSShapeGroup"/><path d="M701.03 279.691l-5.791 10.018 8.679-5.01-2.888-5.008" fill="#D93F48" sketch:type="MSShapeGroup"/><path d="M712.592 279.691h-11.563l2.888 5.008 8.675-5.008" fill="#E76068" sketch:type="MSShapeGroup"/><path d="M737.992 156.851l-50.868 29.367h56.848v-19.001l-5.98-10.366" fill="#F16B6A" sketch:type="MSShapeGroup"/><path d="M743.972 153.396l-5.98 3.455 5.98 10.366v-13.821" fill="#CD4056" sketch:type="MSShapeGroup"/><path d="M657.069 203.574l-6.794 3.922 13.588 7.84-6.794-11.763" fill="#86323C" sketch:type="MSShapeGroup"/><path d="M743.972 186.218h-56.848l-30.055 17.356 6.794 11.763 55.729 32.167 24.38-42.273v-19.012" fill="#A5222C" sketch:type="MSShapeGroup"/><path d="M743.972 205.23l-24.38 42.273 24.38 14.07v-56.343" fill="#B04350" sketch:type="MSShapeGroup"/><path d="M650.275 99.313v81.319l35.234-60.98-35.234-20.338" fill="#FF676A" sketch:type="MSShapeGroup"/><path d="M685.51 119.651l-35.234 60.98v5.587h36.849l50.868-29.367-5.976-10.356-46.507-26.844" fill="#FF7575" sketch:type="MSShapeGroup"/><path d="M732.016 146.495l5.976 10.356 5.98-3.455-11.956-6.901" fill="#F6465F" sketch:type="MSShapeGroup"/><path d="M650.275 191.811v15.685l6.794-3.922-6.794-11.763" fill="#A13742" sketch:type="MSShapeGroup"/><path d="M687.125 186.218h-36.849v5.593l6.794 11.763 30.055-17.356" fill="#C62531" sketch:type="MSShapeGroup"/><path d="M691.154 75.699l-29.588 17.092h39.463l-9.876-17.092" fill="#C93C43" sketch:type="MSShapeGroup"/><path d="M720.758 58.597l-29.604 17.102 9.876 17.092 19.729-34.194" fill="#EC3E4C" sketch:type="MSShapeGroup"/><path d="M743.972 45.186l-23.214 13.411-19.729 34.194h42.943v-47.605" fill="#DF3242" sketch:type="MSShapeGroup"/><path d="M701.03 92.791h-39.463l-11.291 6.522 35.234 20.338 15.52-26.86" fill="#FF6568" sketch:type="MSShapeGroup"/><path d="M701.03 92.791l-15.52 26.86 46.507 26.844-30.987-53.704" fill="#FF7272" sketch:type="MSShapeGroup"/><path d="M743.972 92.791h-42.943l30.987 53.704 11.956 6.901v-60.605" fill="#ED445D" sketch:type="MSShapeGroup"/><path d="M650.275 4.946v87.845h11.291l29.588-17.092-40.879-70.753" fill="#CC3941" sketch:type="MSShapeGroup"/><path d="M664.529-.642h-14.253v5.589l40.879 70.753 29.604-17.102 11.602-20.11-67.832-39.13" fill="#EF3B4A" sketch:type="MSShapeGroup"/><path d="M732.36 38.487l-11.602 20.11 23.214-13.411-11.612-6.699" fill="#E23040" sketch:type="MSShapeGroup"/><path d="M661.566 92.791h-11.291v6.522l11.291-6.522" fill="#FF6065" sketch:type="MSShapeGroup"/><path d="M743.972-.642h-79.444l67.832 39.13 11.612-20.126v-19.003" fill="#FF4456" sketch:type="MSShapeGroup"/><path d="M743.972 18.361l-11.612 20.126 11.612 6.699v-26.825" fill="#F1374A" sketch:type="MSShapeGroup"/><path d="M837.645 532.032l-48.394 27.944h48.394v-27.944" fill="#4E121F" sketch:type="MSShapeGroup"/><path d="M837.645 559.976h-48.394l-25.731 14.857 19.568 33.877 38.724 22.365 15.833-27.429v-43.67" fill="#6E1F28" sketch:type="MSShapeGroup"/><path d="M743.972 540.975v19.001h10.965l-10.965-19.001" fill="#69161D" sketch:type="MSShapeGroup"/><path d="M743.972 477.924v63.05l10.965 19.001 32.799-56.772-43.765-25.28" fill="#9C162A" sketch:type="MSShapeGroup"/><path d="M787.737 503.205l-32.799 56.772h34.313l48.394-27.944-49.908-28.828" fill="#56131F" sketch:type="MSShapeGroup"/><path d="M754.938 559.976h-10.965v19.004l10.965-19.004" fill="#9D252D" sketch:type="MSShapeGroup"/><path d="M754.938 559.976l-10.965 19.004v7.14l19.547-11.287-8.582-14.857" fill="#9A2633" sketch:type="MSShapeGroup"/><path d="M789.251 559.976h-34.313l8.582 14.857 25.731-14.857" fill="#79212A" sketch:type="MSShapeGroup"/><path d="M797.596 446.963l-33.93 19.593h45.248l-11.318-19.593" fill="#81313C" sketch:type="MSShapeGroup"/><path d="M831.533 427.366l-33.936 19.597 11.318 19.593 22.619-39.189" fill="#741623" sketch:type="MSShapeGroup"/><path d="M837.645 423.837l-6.112 3.529-22.619 39.189h28.731v-42.718" fill="#7E1A29" sketch:type="MSShapeGroup"/><path d="M808.914 466.555h-45.248l-19.694 11.369 43.765 25.28 21.177-36.649" fill="#8B1326" sketch:type="MSShapeGroup"/><path d="M808.914 466.555l-21.177 36.649 49.908 28.828v-15.716l-28.731-49.761" fill="#4D111D" sketch:type="MSShapeGroup"/><path d="M837.645 466.555h-28.731l28.731 49.761v-49.761" fill="#8B1826" sketch:type="MSShapeGroup"/><path d="M743.972 369.752v3.356h5.811l-5.811-3.356" fill="#C43E47" sketch:type="MSShapeGroup"/><path d="M749.784 373.107h-5.811v19.006l9.678-16.775-3.867-2.231" fill="#77101C" sketch:type="MSShapeGroup"/><path d="M753.65 375.338l-9.678 16.775v74.442h19.694l33.93-19.593-40.081-69.391-3.865-2.233" fill="#83313C" sketch:type="MSShapeGroup"/><path d="M757.515 377.571l40.081 69.391 33.936-19.597 3.057-5.292-77.075-44.502" fill="#771423" sketch:type="MSShapeGroup"/><path d="M834.59 422.074l-3.057 5.292 6.112-3.529-3.055-1.763" fill="#811A29" sketch:type="MSShapeGroup"/><path d="M763.666 466.555h-19.694v11.369l19.694-11.369" fill="#8E1326" sketch:type="MSShapeGroup"/><path d="M750.744 365.842l-6.771 3.91 5.811 3.356h5.154l-4.194-7.266" fill="#D73F48" sketch:type="MSShapeGroup"/><path d="M763.336 358.572l-12.593 7.27 4.194 7.266 8.399-14.535" fill="#E56068" sketch:type="MSShapeGroup"/><path d="M831.677 319.113l-68.34 39.459-8.399 14.535h82.707v-43.658l-5.968-10.337" fill="#CE5053" sketch:type="MSShapeGroup"/><path d="M837.645 315.668l-5.968 3.444 5.968 10.337v-13.781" fill="#E54F61" sketch:type="MSShapeGroup"/><path d="M754.938 373.107h-5.154l3.867 2.231 1.288-2.231" fill="#82101D" sketch:type="MSShapeGroup"/><path d="M754.938 373.107l-1.288 2.231 3.865 2.233-2.577-4.464" fill="#90313D" sketch:type="MSShapeGroup"/><path d="M837.645 373.107h-82.707l2.577 4.464 77.075 44.502 3.055-5.294v-43.672" fill="#821623" sketch:type="MSShapeGroup"/><path d="M837.645 416.779l-3.055 5.294 3.055 1.763v-7.058" fill="#8E1A2A" sketch:type="MSShapeGroup"/><path d="M743.972 261.573v18.118h31.374l-31.374-18.118" fill="#A84250" sketch:type="MSShapeGroup"/><path d="M743.972 354.108v15.644l6.771-3.91-6.771-11.734" fill="#C73E47" sketch:type="MSShapeGroup"/><path d="M775.346 279.691h-31.374v74.417l6.771 11.734 12.593-7.27 37.179-64.346-25.169-14.535" fill="#D45E67" sketch:type="MSShapeGroup"/><path d="M800.515 294.226l-37.179 64.346 68.34-39.459-5.97-10.339-25.192-14.548" fill="#BE4E51" sketch:type="MSShapeGroup"/><path d="M825.707 308.774l5.97 10.339 5.968-3.444-11.938-6.895" fill="#D44D5F" sketch:type="MSShapeGroup"/><path d="M784.831 237.986l-40.858 23.587 31.374 18.118h33.568l-24.083-41.705" fill="#BC4453" sketch:type="MSShapeGroup"/><path d="M837.645 207.496l-52.814 30.49 24.083 41.705 28.731-49.788v-22.407" fill="#E3364C" sketch:type="MSShapeGroup"/><path d="M837.645 229.902l-28.731 49.788h28.731v-49.788" fill="#D8374E" sketch:type="MSShapeGroup"/><path d="M808.914 279.691h-33.568l25.169 14.535 8.399-14.535" fill="#ED606B" sketch:type="MSShapeGroup"/><path d="M808.914 279.691l-8.399 14.535 25.192 14.548-16.793-29.083" fill="#D55055" sketch:type="MSShapeGroup"/><path d="M837.645 279.691h-28.731l16.793 29.083 11.938 6.895v-35.978" fill="#ED4F63" sketch:type="MSShapeGroup"/><path d="M743.972 167.217v19.001h10.965l-10.965-19.001" fill="#FC6D6C" sketch:type="MSShapeGroup"/><path d="M743.972 153.396v13.821l10.965 19.001 11.474-19.863-22.44-12.959" fill="#D64157" sketch:type="MSShapeGroup"/><path d="M766.412 166.356l-11.474 19.863h45.868l-34.394-19.863" fill="#F35466" sketch:type="MSShapeGroup"/><path d="M754.938 186.218h-10.965v19.012l10.965-19.012" fill="#AD232D" sketch:type="MSShapeGroup"/><path d="M754.938 186.218l-10.965 19.012v56.343l40.858-23.587-29.893-51.768" fill="#B84452" sketch:type="MSShapeGroup"/><path d="M800.806 186.218h-45.868l29.893 51.768 52.814-30.49-36.839-21.278" fill="#DE364A" sketch:type="MSShapeGroup"/><path d="M788.878 127.469l-44.906 25.927 22.44 12.959 22.466-38.887" fill="#BE3E55" sketch:type="MSShapeGroup"/><path d="M818.921 110.124l-30.043 17.345-22.466 38.887 34.394 19.863h36.839v-43.662l-18.723-32.433" fill="#D85162" sketch:type="MSShapeGroup"/><path d="M837.645 99.313l-18.723 10.811 18.723 32.433v-43.244" fill="#FF90A4" sketch:type="MSShapeGroup"/><path d="M837.645 186.218h-36.839l36.839 21.278v-21.278" fill="#C53448" sketch:type="MSShapeGroup"/><path d="M743.972 45.186v47.605h64.942l-8.741-15.131-56.201-32.474" fill="#FF3649" sketch:type="MSShapeGroup"/><path d="M800.173 77.66l8.741 15.131 4.363-7.558-13.104-7.573" fill="#FF7187" sketch:type="MSShapeGroup"/><path d="M813.277 85.233l-4.363 7.558h17.444l-13.081-7.558" fill="#FF5D72" sketch:type="MSShapeGroup"/><path d="M808.914 92.791h-64.942v60.605l44.906-25.927 20.036-34.678" fill="#FF4A67" sketch:type="MSShapeGroup"/><path d="M808.914 92.791l-20.036 34.678 30.043-17.345-10.007-17.333" fill="#FF6077" sketch:type="MSShapeGroup"/><path d="M826.358 92.791h-17.444l10.007 17.333 18.723-10.811-11.287-6.522" fill="#FFAAC8" sketch:type="MSShapeGroup"/><path d="M772.052 28.984l-28.08 16.202 56.201 32.474-28.121-48.676" fill="#CB3040" sketch:type="MSShapeGroup"/><path d="M837.645-.642h-14.249l-51.343 29.627 28.121 48.676 13.104 7.573 24.368-42.209v-43.666" fill="#FF6475" sketch:type="MSShapeGroup"/><path d="M837.645 43.023l-24.368 42.209 13.081 7.558h11.287v-49.768" fill="#FF5363" sketch:type="MSShapeGroup"/><path d="M837.645 92.791h-11.287l11.287 6.522v-6.522" fill="#FF97AE" sketch:type="MSShapeGroup"/><path d="M754.938-.642h-10.965v19.003l10.965-19.003" fill="#FF3C4E" sketch:type="MSShapeGroup"/><path d="M754.938-.642l-10.965 19.003v26.825l28.08-16.202-17.114-29.627" fill="#FF3043" sketch:type="MSShapeGroup"/><path d="M823.396-.642h-68.458l17.114 29.627 51.343-29.627" fill="#FF647B" sketch:type="MSShapeGroup"/><path d="M837.645 532.032v27.944h25.208l-11.596-20.087-13.612-7.857" fill="#45111C" sketch:type="MSShapeGroup"/><path d="M851.257 539.889l11.596 20.087 5.799-10.045-17.395-10.043" fill="#7D1725" sketch:type="MSShapeGroup"/><path d="M868.652 549.932l-5.799 10.045h23.198l-17.399-10.045" fill="#AC3C40" sketch:type="MSShapeGroup"/><path d="M862.853 559.976h-25.208v43.67l25.208-43.67" fill="#611D25" sketch:type="MSShapeGroup"/><path d="M862.853 559.976l-25.208 43.67v36.573l53.649-30.976-28.44-49.267" fill="#2C060C" sketch:type="MSShapeGroup"/><path d="M886.051 559.976h-23.198l28.44 49.267 40.046-23.124-45.289-26.143" fill="#8D1F2E" sketch:type="MSShapeGroup"/><path d="M844.451 528.102l-6.806 3.93 13.612 7.857-6.806-11.787" fill="#4B111D" sketch:type="MSShapeGroup"/><path d="M899.669 496.215l-55.218 31.887 6.806 11.787 17.395 10.043 31.017-53.717" fill="#881726" sketch:type="MSShapeGroup"/><path d="M925.358 481.381l-25.688 14.834-31.017 53.717 17.399 10.045h45.289v-68.233l-5.982-10.362" fill="#BB3E42" sketch:type="MSShapeGroup"/><path d="M931.34 477.924l-5.982 3.457 5.982 10.362v-13.818" fill="#C11F31" sketch:type="MSShapeGroup"/><path d="M931.34 559.976h-45.289l45.289 26.143v-26.143" fill="#99212F" sketch:type="MSShapeGroup"/><path d="M837.645 423.837v42.718h73.999l-73.999-42.718" fill="#7B1928" sketch:type="MSShapeGroup"/><path d="M837.645 516.317v15.716l6.806-3.93-6.806-11.785" fill="#4B111D" sketch:type="MSShapeGroup"/><path d="M911.644 466.555h-73.999v49.761l6.806 11.785 55.218-31.887 15.839-27.429-3.865-2.231" fill="#881725" sketch:type="MSShapeGroup"/><path d="M915.509 468.786l-15.839 27.429 25.688-14.834-5.986-10.364-3.862-2.231" fill="#BB3D41" sketch:type="MSShapeGroup"/><path d="M919.371 471.017l5.986 10.364 5.982-3.457-11.969-6.907" fill="#C11F30" sketch:type="MSShapeGroup"/><path d="M931.34 369.752l-5.811 3.356h5.811v-3.356" fill="#FA667C" sketch:type="MSShapeGroup"/><path d="M878.519 400.244l-40.875 23.593 73.999 42.718h5.152l-38.277-66.311" fill="#881A2A" sketch:type="MSShapeGroup"/><path d="M931.34 373.107h-5.811l-47.009 27.136 38.277 66.311 14.544-25.196v-68.252" fill="#6A172A" sketch:type="MSShapeGroup"/><path d="M931.34 441.359l-14.544 25.196h14.544v-25.196" fill="#CC2841" sketch:type="MSShapeGroup"/><path d="M916.796 466.555h-5.152l3.865 2.231 1.288-2.231" fill="#961827" sketch:type="MSShapeGroup"/><path d="M916.796 466.555l-1.288 2.231 3.862 2.231-2.575-4.462" fill="#CE4044" sketch:type="MSShapeGroup"/><path d="M931.34 466.555h-14.544l2.575 4.462 11.969 6.907v-11.369" fill="#D52133" sketch:type="MSShapeGroup"/><path d="M837.645 329.45v43.658h25.208l-25.208-43.658" fill="#B44D4F" sketch:type="MSShapeGroup"/><path d="M837.645 315.668v13.781l25.208 43.658 18.575-32.167-43.783-25.272" fill="#C94C5D" sketch:type="MSShapeGroup"/><path d="M881.428 340.941l-18.575 32.167h62.675l5.811-3.356-49.912-28.811" fill="#E46276" sketch:type="MSShapeGroup"/><path d="M862.853 373.107h-25.208v43.672l25.208-43.672" fill="#721422" sketch:type="MSShapeGroup"/><path d="M862.853 373.107l-25.208 43.672v7.058l40.875-23.593-15.666-27.136" fill="#7C1928" sketch:type="MSShapeGroup"/><path d="M925.529 373.107h-62.675l15.666 27.136 47.009-27.136" fill="#601628" sketch:type="MSShapeGroup"/><path d="M912.588 272.4l-12.628 7.29h16.836l-4.209-7.29" fill="#C4364C" sketch:type="MSShapeGroup"/><path d="M925.209 265.114l-12.622 7.286 4.209 7.29 8.413-14.577" fill="#FF6876" sketch:type="MSShapeGroup"/><path d="M931.34 261.573l-6.131 3.541-8.413 14.577h14.544v-18.118" fill="#FF738D" sketch:type="MSShapeGroup"/><path d="M916.796 279.691h-16.836l-62.315 35.978 43.783 25.272 35.368-61.25" fill="#D74E60" sketch:type="MSShapeGroup"/><path d="M916.796 279.691l-35.368 61.25 49.912 28.811v-64.874l-14.544-25.188" fill="#F4647A" sketch:type="MSShapeGroup"/><path d="M931.34 279.691h-14.544l14.544 25.188v-25.188" fill="#A31F31" sketch:type="MSShapeGroup"/><path d="M837.645 207.496v22.407l9.701-16.81-9.701-5.597" fill="#FF394F" sketch:type="MSShapeGroup"/><path d="M847.345 213.093l-9.701 16.81v49.788h62.315l12.628-7.29-18.734-32.464-46.509-26.844" fill="#F23A51" sketch:type="MSShapeGroup"/><path d="M893.854 239.937l18.734 32.464 12.622-7.286 3.065-5.311-34.421-19.867" fill="#FF7080" sketch:type="MSShapeGroup"/><path d="M928.274 259.803l-3.065 5.311 6.131-3.541-3.065-1.77" fill="#FF7C98" sketch:type="MSShapeGroup"/><path d="M899.96 279.691h-62.315v35.978l62.315-35.978" fill="#FF5467" sketch:type="MSShapeGroup"/><path d="M931.34 153.396l-56.846 32.822h56.846v-32.822" fill="#FF455F" sketch:type="MSShapeGroup"/><path d="M857.038 196.298l-19.393 11.198 9.701 5.597 9.692-16.795" fill="#D93549" sketch:type="MSShapeGroup"/><path d="M865.764 191.261l-8.726 5.037-9.692 16.795 46.509 26.844-28.09-48.676" fill="#CE364B" sketch:type="MSShapeGroup"/><path d="M931.34 186.218h-56.846l-8.73 5.043 28.09 48.676 34.421 19.867 3.065-5.315v-68.27" fill="#FF6875" sketch:type="MSShapeGroup"/><path d="M931.34 254.489l-3.065 5.315 3.065 1.77v-7.084" fill="#FF728C" sketch:type="MSShapeGroup"/><path d="M837.645 142.556v43.662h25.208l-25.208-43.662" fill="#E45165" sketch:type="MSShapeGroup"/><path d="M837.645 99.313v43.244l25.208 43.662 31.333-54.269-56.541-32.637" fill="#FF91A8" sketch:type="MSShapeGroup"/><path d="M894.186 131.949l-31.333 54.269h11.641l56.846-32.822-37.154-21.447" fill="#FD4560" sketch:type="MSShapeGroup"/><path d="M862.853 186.218h-25.208v21.278l19.393-11.198 5.815-10.08" fill="#D0344A" sketch:type="MSShapeGroup"/><path d="M862.853 186.218l-5.815 10.08 8.726-5.037-2.911-5.043" fill="#C6354C" sketch:type="MSShapeGroup"/><path d="M874.494 186.218h-11.641l2.911 5.043 8.73-5.043" fill="#FF6777" sketch:type="MSShapeGroup"/><path d="M899.824 63.393l-50.888 29.398h67.861l-16.972-29.398" fill="#FF5365" sketch:type="MSShapeGroup"/><path d="M931.34 45.186l-31.516 18.206 16.972 29.398 14.544-25.192v-22.413" fill="#FF3A54" sketch:type="MSShapeGroup"/><path d="M931.34 67.599l-14.544 25.192h14.544v-25.192" fill="#FF4C63" sketch:type="MSShapeGroup"/><path d="M916.796 92.791h-67.861l-11.291 6.522 56.541 32.637 22.611-39.159" fill="#FF97B0" sketch:type="MSShapeGroup"/><path d="M916.796 92.791l-22.611 39.159 37.154 21.447v-35.416l-14.544-25.19" fill="#FF4865" sketch:type="MSShapeGroup"/><path d="M931.34 92.791h-14.544l14.544 25.19v-25.19" fill="#FF4763" sketch:type="MSShapeGroup"/><path d="M851.898-.642h-14.253v43.666l22.473-38.926-8.219-4.74" fill="#FF6A7D" sketch:type="MSShapeGroup"/><path d="M860.117 4.098l-22.473 38.926v49.768h11.291l50.888-29.398-31.499-54.559-8.207-4.736" fill="#FF586A" sketch:type="MSShapeGroup"/><path d="M868.324 8.834l31.499 54.559 31.516-18.206-63.015-36.353" fill="#FF3D58" sketch:type="MSShapeGroup"/><path d="M848.936 92.791h-11.291v6.522l11.291-6.522" fill="#FFA0B9" sketch:type="MSShapeGroup"/><path d="M862.853-.642h-10.955l8.219 4.74 2.736-4.74" fill="#FF6A80" sketch:type="MSShapeGroup"/><path d="M862.853-.642l-2.736 4.74 8.207 4.736-5.471-9.476" fill="#FF586C" sketch:type="MSShapeGroup"/><path d="M931.34-.642h-68.487l5.471 9.476 63.015 36.353v-45.829" fill="#FF3E5A" sketch:type="MSShapeGroup"/><path d="M1025.043 532.032l-1.376.795v106.597l1.376.795v-108.187" fill="#1A0406" sketch:type="MSShapeGroup"/><path d="M1023.667 532.827l-47.034 27.149h47.034v-27.149" fill="#E91F36" sketch:type="MSShapeGroup"/><path d="M1023.667 559.976h-47.034l-4.419 2.55 40.854 70.78 10.599 6.118v-79.448" fill="#640B18" sketch:type="MSShapeGroup"/><path d="M1023.667 531.237v1.59l1.376-.795-1.376-.795" fill="#190104" sketch:type="MSShapeGroup"/><path d="M931.34 491.743v68.233h39.402l-39.402-68.233" fill="#AA3C40" sketch:type="MSShapeGroup"/><path d="M931.34 477.924v13.818l39.402 68.233 25.676-44.473-65.077-37.579" fill="#B01F2F" sketch:type="MSShapeGroup"/><path d="M996.417 515.503l-25.676 44.473h5.892l47.034-27.149v-1.59l-27.25-15.734" fill="#E81F35" sketch:type="MSShapeGroup"/><path d="M970.741 559.976h-39.402v26.143l36.458-21.045 2.944-5.099" fill="#8B1F2D" sketch:type="MSShapeGroup"/><path d="M970.741 559.976l-2.944 5.099 4.417-2.548-1.473-2.55" fill="#4B0D18" sketch:type="MSShapeGroup"/><path d="M976.633 559.976h-5.892l1.473 2.55 4.419-2.55" fill="#630B18" sketch:type="MSShapeGroup"/><path d="M1025.043 423.837l-1.376.795v40.164l-17.391-30.125 17.391 30.125v66.441l1.376.795v-108.195" fill="#1C0406" sketch:type="MSShapeGroup"/><path d="M1006.276 434.671l-55.237 31.885h72.627v-1.759l-17.391-30.125" fill="#AA263D" sketch:type="MSShapeGroup"/><path d="M1023.667 424.632l-17.391 10.038 17.391 30.125v-40.164" fill="#B51F34" sketch:type="MSShapeGroup"/><path d="M1023.667 466.555h-72.627l-19.7 11.369 65.077 37.579 27.25-47.199v-1.749" fill="#B21F30" sketch:type="MSShapeGroup"/><path d="M1023.667 468.304l-27.25 47.199 27.25 15.734v-62.933" fill="#EC1F36" sketch:type="MSShapeGroup"/><path d="M1023.667 423.044v1.588l1.376-.795-1.376-.793" fill="#1E0105" sketch:type="MSShapeGroup"/><path d="M931.34 369.752v3.356h5.815l-5.815-3.356" fill="#D36074" sketch:type="MSShapeGroup"/><path d="M937.155 373.107h-5.815v68.252l31.007-53.71-25.192-14.542" fill="#591627" sketch:type="MSShapeGroup"/><path d="M962.347 387.649l-31.007 53.71v25.196h19.7l55.237-31.885-18.752-32.488-25.177-14.533" fill="#AC263D" sketch:type="MSShapeGroup"/><path d="M987.524 402.182l18.752 32.488 17.391-10.038v-1.588l-36.143-20.862" fill="#B71F34" sketch:type="MSShapeGroup"/><path d="M951.04 466.555h-19.7v11.369l19.7-11.369" fill="#B41F2F" sketch:type="MSShapeGroup"/><path d="M1025.043 315.668l-1.376.793v106.582l1.376.793v-108.169" fill="#240407" sketch:type="MSShapeGroup"/><path d="M959.438 353.533l-28.098 16.218 5.815 3.356h33.586l-11.303-19.574" fill="#D96175" sketch:type="MSShapeGroup"/><path d="M993.342 333.965l-33.903 19.568 11.303 19.574 22.6-39.142" fill="#911F2F" sketch:type="MSShapeGroup"/><path d="M1023.667 316.462l-30.325 17.504-22.6 39.142h52.926v-56.646" fill="#D75F59" sketch:type="MSShapeGroup"/><path d="M970.741 373.107h-33.586l25.192 14.542 8.394-14.542" fill="#5B1628" sketch:type="MSShapeGroup"/><path d="M970.741 373.107l-8.394 14.542 25.177 14.533-16.783-29.075" fill="#B0263D" sketch:type="MSShapeGroup"/><path d="M1023.667 373.107h-52.926l16.783 29.075 36.143 20.862v-49.936" fill="#BC1F34" sketch:type="MSShapeGroup"/><path d="M1023.667 314.873v1.588l1.376-.793-1.376-.795" fill="#3C0910" sketch:type="MSShapeGroup"/><path d="M931.34 261.573v18.118h31.384l-31.384-18.118" fill="#FF728C" sketch:type="MSShapeGroup"/><path d="M931.34 304.878v64.874l28.098-16.218-28.098-48.655" fill="#F46379" sketch:type="MSShapeGroup"/><path d="M962.724 279.691h-31.384v25.188l28.098 48.655 33.903-19.568 15.85-27.45-46.467-26.825" fill="#A31F31" sketch:type="MSShapeGroup"/><path d="M1009.191 306.516l-15.85 27.45 30.325-17.504v-1.588l-14.476-8.357" fill="#F1615C" sketch:type="MSShapeGroup"/><path d="M1025.043 207.496l-1.376.793v69.647l-30.148-52.246 30.148 52.246v36.938l1.376.795v-108.173" fill="#5C1921" sketch:type="MSShapeGroup"/><path d="M993.519 225.69l-62.179 35.883 31.384 18.118h60.943v-1.755l-30.148-52.246" fill="#FF7997" sketch:type="MSShapeGroup"/><path d="M1023.667 208.289l-30.148 17.401 30.148 52.246v-69.647" fill="#FF8CB0" sketch:type="MSShapeGroup"/><path d="M1023.667 279.691h-60.943l46.467 26.825 14.476-25.072v-1.753" fill="#C32234" sketch:type="MSShapeGroup"/><path d="M1023.667 281.444l-14.476 25.072 14.476 8.357v-33.43" fill="#FF6863" sketch:type="MSShapeGroup"/><path d="M931.34 153.396v32.822h39.402l-8.724-15.11-30.678-17.712" fill="#FF4F6E" sketch:type="MSShapeGroup"/><path d="M962.017 171.108l8.724 15.11 4.363-7.554-13.087-7.556" fill="#F84E6D" sketch:type="MSShapeGroup"/><path d="M975.104 178.664l-4.363 7.554h17.45l-13.087-7.554" fill="#E43A4E" sketch:type="MSShapeGroup"/><path d="M970.741 186.218h-39.402v68.27l39.402-68.27" fill="#f78" sketch:type="MSShapeGroup"/><path d="M1023.667 206.701v1.588l1.376-.793-1.376-.795" fill="#5A292F" sketch:type="MSShapeGroup"/><path d="M970.741 186.218l-39.402 68.27v7.084l62.179-35.883-22.777-39.472" fill="#FF83A1" sketch:type="MSShapeGroup"/><path d="M988.192 186.218h-17.45l22.777 39.472 30.148-17.401v-1.588l-35.475-20.483" fill="#FF97BC" sketch:type="MSShapeGroup"/><path d="M1025.043 99.313l-1.376.795v106.593l1.376.795v-108.183" fill="#35050C" sketch:type="MSShapeGroup"/><path d="M946.679 144.544l-15.339 8.852 30.678 17.712-15.339-26.564" fill="#F2445E" sketch:type="MSShapeGroup"/><path d="M1018.849 102.887l-72.17 41.657 15.339 26.564 13.087 7.556 43.744-75.777" fill="#C9435D" sketch:type="MSShapeGroup"/><path d="M1023.667 100.108l-4.818 2.779-43.744 75.777 13.087 7.554h35.475v-86.11" fill="#BA3143" sketch:type="MSShapeGroup"/><path d="M1023.667 186.218h-35.475l35.475 20.483v-20.483" fill="#FF81A1" sketch:type="MSShapeGroup"/><path d="M1023.667 98.518v1.59l1.376-.795-1.376-.795" fill="#3D1417" sketch:type="MSShapeGroup"/><path d="M931.34 45.186v22.413l9.705-16.808-9.705-5.605" fill="#EC3A52" sketch:type="MSShapeGroup"/><path d="M941.044 50.792l-9.705 16.808v25.192h82.412l-72.708-41.999" fill="#EC4D61" sketch:type="MSShapeGroup"/><path d="M931.34 117.981v35.416l15.339-8.852-15.339-26.564" fill="#FC4962" sketch:type="MSShapeGroup"/><path d="M1013.752 92.791h-82.412v25.19l15.339 26.564 72.17-41.657 3.098-5.362-8.195-4.734" fill="#D24761" sketch:type="MSShapeGroup"/><path d="M1021.947 97.525l-3.098 5.362 4.818-2.779v-1.59l-1.72-.993" fill="#C23546" sketch:type="MSShapeGroup"/><path d="M1025.043-8.866l-1.376.795v99.107l-42.92-74.35 42.92 74.35v7.482l1.376.795v-108.179" fill="#9D474A" sketch:type="MSShapeGroup"/><path d="M950.743 33.994l-19.403 11.192 9.705 5.605 9.698-16.797" fill="#FF4A69" sketch:type="MSShapeGroup"/><path d="M980.747 16.686l-30.004 17.308-9.698 16.797 72.708 41.999h9.915v-1.755l-42.92-74.35" fill="#FF627D" sketch:type="MSShapeGroup"/><path d="M1023.667-.642h-12.879l-30.041 17.329 42.92 74.35v-91.678" fill="#FF8568" sketch:type="MSShapeGroup"/><path d="M1023.667 92.791h-9.915l8.195 4.734 1.72-2.981v-1.753" fill="#FF5B7D" sketch:type="MSShapeGroup"/><path d="M1023.667 94.544l-1.72 2.981 1.72.993v-3.974" fill="#FF435A" sketch:type="MSShapeGroup"/><path d="M970.741-.642h-39.402v45.829l19.403-11.192 19.998-34.637" fill="#EB3850" sketch:type="MSShapeGroup"/><path d="M970.741-.642l-19.998 34.637 30.004-17.308-10.005-17.329" fill="#EB4A5F" sketch:type="MSShapeGroup"/><path d="M1010.788-.642h-40.046l10.005 17.329 30.041-17.329" fill="#FF644F" sketch:type="MSShapeGroup"/></g></svg>