<?xml version="1.0" encoding="UTF-8" standalone="no"?>
<svg width="16px" height="13px" viewBox="0 0 16 13" version="1.1" xmlns="http://www.w3.org/2000/svg" xmlns:xlink="http://www.w3.org/1999/xlink" xmlns:sketch="http://www.bohemiancoding.com/sketch/ns">
    <!-- Generator: Sketch Beta 3.2.2 (9983) - http://www.bohemiancoding.com/sketch -->
    <title>twitter 2</title>
    <desc>Created with Sketch Beta.</desc>
    <defs></defs>
    <g id="Page-1" stroke="none" stroke-width="1" fill="none" fill-rule="evenodd" sketch:type="MSPage">
        <path d="M14.3563729,3.66354411 C14.3563729,8.00702576 11.0589727,13 5.03233989,13 C3.17564997,13 1.45085606,12.462139 0,11.518345 C0.253646164,11.54879 0.517438174,11.5690867 0.781230184,11.5690867 C2.31325301,11.5690867 3.73367153,11.0413739 4.85986049,10.1584699 C3.41915029,10.1381733 2.21179455,9.18423107 1.79581484,7.87509758 C1.99873177,7.91569087 2.2016487,7.93598751 2.41471148,7.93598751 C2.70894103,7.93598751 3.00317058,7.89539422 3.27710843,7.82435597 C1.77552315,7.51990632 0.649334179,6.19047619 0.649334179,4.60733802 L0.649334179,4.56674473 C1.08560558,4.81030445 1.59289791,4.96252927 2.13062777,4.98282592 C1.24793912,4.38407494 0.669625872,3.38953942 0.669625872,2.24277908 C0.669625872,1.6440281 0.831959417,1.07572209 1.11604312,0.598750976 C2.72923272,2.57767369 5.1439442,3.88680718 7.87317692,4.02888368 C7.82244769,3.78532397 7.79201015,3.53161593 7.79201015,3.27790788 C7.79201015,1.46135831 9.26315789,0 11.0691186,0 C12.0126823,0 12.8649334,0.395784543 13.4635384,1.04527713 C14.214331,0.882903981 14.9143944,0.619047619 15.5535828,0.243559719 C15.3100824,1.00468384 14.7926443,1.65417642 14.1128725,2.06010929 C14.7723526,1.97892272 15.4115409,1.80640125 16,1.54254489 C15.5434369,2.20218579 14.9854153,2.7704918 14.3563729,3.24746292 L14.3563729,3.66354411 Z" id="twitter-2" fill="#A32031" sketch:type="MSShapeGroup"></path>
    </g>
</svg>