<svg xmlns="http://www.w3.org/2000/svg" viewBox="0 0 250 250" enable-background="new 0 0 250 250"><path fill="#800000" d="M6.2 245c-.1 0-.2-4.5-.2-10v-54.8c0-5.5 4.5-10 10-10h55.3c5.5 0 6.8 3.2 2.9 7.1l-60.7 60.7c-3.8 3.8-7.1 7-7.3 7zM169.2 17c0-5.5 4.5-10 10-10h54.8c5.5 0 10 .1 10 .2s-3.2 3.4-7.1 7.3l-60.7 60.7c-3.9 3.9-7.1 2.6-7.1-2.9v-55.3zM88.5 99.5c0-5.5 4.5-10 10-10h53.4c5.5 0 6.8 3.2 2.9 7.1l-59.3 59.3c-3.9 3.9-7.1 2.6-7.1-2.9v-53.5z"/><path fill="#a00" d="M175.2 97.9c-2.5-4.9-1.3-12.1 2.6-16l59.2-59.2c3.9-3.9 7.1-2.6 7.1 2.9v199.9c0 5.5-2 6-4.5 1.1l-64.4-128.7zM24.7 245c-5.5 0-6.8-3.2-2.9-7.1l59.2-59.2c3.9-3.9 11.1-5.1 16-2.6l128.7 64.4c4.9 2.5 4.4 4.5-1.1 4.5h-199.9zM101.3 171.8c-4.9-2.5-5.8-7.7-1.9-11.5l59.9-59.9c3.9-3.9 9.1-3 11.5 1.9l65.1 130.2c2.5 4.9.4 6.9-4.5 4.5l-130.1-65.2zM99.9 83.7c-5.5 0-6.8-3.2-2.9-7.1l59.3-59.3c3.9-3.9 7.1-2.6 7.1 2.9v53.4c0 5.5-4.5 10-10 10h-53.5zM19.3 164.4c-5.5 0-6.8-3.2-2.9-7.1l59.3-59.3c3.9-3.9 7.1-2.6 7.1 2.9v53.4c0 5.5-4.5 10-10 10l-53.5.1z"/></svg>