<svg xmlns="http://www.w3.org/2000/svg" viewBox="0 0 1600 450" enable-background="new 0 0 1600 450"><g><path fill-opacity=".05" d="M1626.2-2.6c-216.5 78.3-407.8 91.4-589.5 91.4s-320.9 33.6-433 96.9c-112.2 63.4-336.4 231.2-595.4 238.7v-421.4l1617.9-5.6zM1614.6-2.6c-216.5 78.3-407.8 91.4-589.5 91.4s-320.9 33.6-433 96.9c-112.2 63.4-336.4 231.2-595.4 238.7v-421.4l1617.9-5.6z"/><path fill="#74C0DC" d="M1604.9-2.6c-216.5 78.3-402 85.8-583.7 85.8-181.7 0-320.9 33.6-433 96.9-112.1 63.4-336.3 231.2-595.4 238.7v-421.4h1612.1z"/><path fill="#fff" d="M936.1 68.2c-181.7 0-320.9 33.6-433 97-99.6 56.3-287.8 195-510.3 230.5v23.1c259-7.5 483.2-175.3 595.3-238.7 112.1-63.4 251.3-96.9 433-96.9s367.3-7.5 583.7-85.8h-128.6c-197.9 64.3-370.7 70.8-540.1 70.8z"/><path fill="#4EB3D4" d="M1013.4-2.6c-137 49.6-254.5 54.3-369.5 54.3s-203.1 21.2-274.1 61.4c-71 40.1-212.9 146.4-376.9 151.1v-266.8h1020.5z"/><path fill="#58B7D7" d="M927.8-2.6c-125.5 37.1-233.2 40.6-338.5 40.6-105.4 0-186.1 15.9-251.2 46-65 30-195 109.5-345.3 113v-199.6h935z"/><path fill="#46B0D2" d="M754.6-2.6c-102.3 31.6-190 34.6-275.8 34.6-85.9 0-151.7 13.5-204.6 39-53 25.6-158.9 93.2-281.3 96.2v-169.8h761.7z"/><path fill="#2DA4CC" d="M627.7-2.6c-85.2 26.3-158.3 28.8-229.9 28.8s-126.4 11.3-170.5 32.6c-44.2 21.2-132.4 77.6-234.5 80.1v-141.5h634.9z"/><g opacity=".5"><path fill="#fff" d="M1134.4 32c-1.7-5.2 1.4-10.9 7-12.7 5.6-1.9 11.5.8 13.2 6 1.7 5.2-1.4 10.9-7 12.7-5.5 1.8-11.5-.8-13.2-6z"/><path fill="#58B7D7" d="M1138.1 29.1c-1.2-3.7.8-7.8 4.5-9 3.7-1.3 7.8.8 9 4.5 1.2 3.7-.8 7.8-4.5 9-3.7 1.2-7.7-.8-9-4.5z"/><path fill="#fff" d="M1109 19c-1.2-3.6 1-7.5 4.8-8.8 3.9-1.3 7.9.6 9.1 4.1 1.2 3.6-1 7.5-4.8 8.8-3.8 1.3-7.9-.6-9.1-4.1z"/><path fill="#58B7D7" d="M1111.6 17c-.9-2.6.5-5.4 3.1-6.2 2.6-.9 5.4.5 6.2 3.1.9 2.6-.5 5.4-3.1 6.2-2.6.8-5.3-.6-6.2-3.1z"/><path fill="#fff" d="M1088.8 19.6c-.9-2.7.7-5.6 3.6-6.5 2.9-1 5.9.4 6.8 3.1.9 2.7-.7 5.6-3.6 6.5-2.9 1-5.9-.4-6.8-3.1z"/><path fill="#58B7D7" d="M1090.7 18.1c-.6-1.9.4-4 2.3-4.6 1.9-.6 4 .4 4.6 2.3.6 1.9-.4 4-2.3 4.6-1.9.7-3.9-.4-4.6-2.3z"/><path fill="#fff" d="M1145.8 17.4c-.9-2.7.7-5.6 3.6-6.5 2.9-1 5.9.4 6.8 3.1.9 2.7-.7 5.6-3.6 6.5-2.9.9-5.9-.4-6.8-3.1z"/><path fill="#58B7D7" d="M1147.7 15.9c-.6-1.9.4-4 2.3-4.6 1.9-.6 4 .4 4.6 2.3.6 1.9-.4 4-2.3 4.6-1.9.7-3.9-.4-4.6-2.3z"/><path fill="#fff" d="M1078.1 47.5c-2.5-7.6 2-16 10.3-18.8 8.2-2.8 17 1.2 19.5 8.8 2.5 7.6-2.1 16-10.3 18.8-8.2 2.8-16.9-1.2-19.5-8.8z"/><path fill="#58B7D7" d="M1083.6 43.2c-1.8-5.5 1.1-11.4 6.6-13.3 5.5-1.8 11.5 1.1 13.3 6.6 1.8 5.5-1.1 11.5-6.6 13.3-5.5 1.9-11.5-1.1-13.3-6.6z"/><ellipse transform="matrix(-.986 .164 -.164 -.986 494.999 421.839)" fill="#4EB3D4" cx="230" cy="231.4" rx="17.8" ry="16.5"/><ellipse transform="matrix(-.986 .164 -.164 -.986 489.092 424.439)" fill="#fff" cx="227" cy="232.5" rx="17.8" ry="16.5"/><path fill="#58B7D7" d="M216.3 231.5c-1.1-6.5 3.3-12.6 9.8-13.7 6.5-1.1 12.6 3.3 13.7 9.8 1.1 6.5-3.3 12.6-9.8 13.7-6.5 1.1-12.6-3.3-13.7-9.8z"/><path fill="#fff" d="M87.7 334c-1-6.2 3.6-12.1 10.2-13.2 6.7-1.1 13 3 14 9.2 1 6.2-3.6 12.1-10.3 13.2-6.6 1.1-12.9-3-13.9-9.2z"/><path fill="#58B7D7" d="M94.1 330.2c-.7-4 2-7.7 6-8.4 4-.7 7.7 2 8.4 6 .7 4-2 7.7-6 8.4-4 .6-7.8-2.1-8.4-6z"/><path fill="#fff" d="M181.6 241.9c-.9-5.4 3.1-10.5 8.9-11.5 5.8-1 11.2 2.6 12.1 8 .9 5.4-3.1 10.5-8.9 11.5-5.8 1-11.2-2.6-12.1-8z"/><path fill="#58B7D7" d="M185.7 239.6c-.6-3.9 2-7.6 5.9-8.2 3.9-.6 7.6 2 8.2 5.9.6 3.9-2 7.6-5.9 8.2-3.8.6-7.5-2-8.2-5.9z"/><path fill="#fff" d="M72.9 345.9c-.9-5.4 3.1-10.5 8.9-11.5 5.8-1 11.2 2.6 12.1 8 .9 5.4-3.1 10.5-8.9 11.5-5.8 1-11.2-2.6-12.1-8z"/><path fill="#58B7D7" d="M77 343.6c-.6-3.9 2-7.6 5.9-8.2 3.9-.6 7.6 2 8.2 5.9.6 3.9-2 7.6-5.9 8.2-3.9.6-7.5-2-8.2-5.9z"/><path fill="#fff" d="M199.9 247.1c-.6-3.5 2-6.9 5.9-7.5 3.8-.6 7.4 1.7 8 5.2.6 3.5-2 6.9-5.8 7.5-3.9.7-7.5-1.7-8.1-5.2z"/><path fill="#58B7D7" d="M202.6 245.6c-.4-2.6 1.3-5 3.9-5.4 2.6-.4 5 1.3 5.4 3.9.4 2.6-1.3 5-3.9 5.4-2.5.4-4.9-1.4-5.4-3.9z"/><path fill="#fff" d="M153.9 235.5c-.6-3.9 2.2-7.6 6.4-8.3 4.2-.7 8.1 1.9 8.8 5.8.6 3.9-2.2 7.6-6.4 8.3-4.2.7-8.1-1.9-8.8-5.8z"/><path fill="#58B7D7" d="M156.9 233.8c-.5-2.8 1.4-5.5 4.2-5.9 2.8-.5 5.5 1.4 5.9 4.2.5 2.8-1.4 5.5-4.2 5.9-2.8.5-5.4-1.4-5.9-4.2z"/><path fill="#fff" d="M44.3 348.2c-.6-3.5 2-6.9 5.9-7.5 3.8-.6 7.4 1.7 8 5.2.6 3.5-2 6.9-5.8 7.5-4 .7-7.5-1.6-8.1-5.2z"/><path fill="#58B7D7" d="M48.7 345.8c-.3-1.9 1-3.7 2.8-4 1.9-.3 3.7 1 4 2.8.3 1.9-1 3.7-2.8 4-1.9.4-3.7-.9-4-2.8z"/><path fill="#fff" d="M130.6 224.4c-.6-3.5 2-6.9 5.9-7.5 3.8-.6 7.4 1.7 8 5.2.6 3.5-2 6.9-5.8 7.5-4 .7-7.5-1.7-8.1-5.2z"/><path fill="#58B7D7" d="M133.6 222.8c-.4-2.4 1.2-4.7 3.6-5.1 2.4-.4 4.7 1.2 5.1 3.6.4 2.4-1.2 4.7-3.6 5.1-2.5.4-4.7-1.2-5.1-3.6z"/><path fill="#fff" d="M152.2 295.3c-.9-5.2 3-10.1 8.6-11.1 5.6-.9 10.8 2.5 11.7 7.7.9 5.2-3 10.1-8.6 11.1s-10.8-2.5-11.7-7.7z"/><path fill="#58B7D7" d="M156.6 293.1c-.6-3.5 1.8-6.9 5.3-7.4 3.5-.6 6.9 1.8 7.4 5.3.6 3.5-1.8 6.9-5.3 7.5-3.5.5-6.8-1.9-7.4-5.4z"/><path fill="#fff" d="M602.7 66.3c-1.4-10.5 6.6-20.3 18-21.9 11.4-1.6 21.8 5.7 23.2 16.3 1.4 10.5-6.6 20.3-18 21.9-11.4 1.5-21.8-5.7-23.2-16.3z"/><path fill="#58B7D7" d="M610.8 62.1c-1-7.6 4.3-14.6 11.9-15.7 7.6-1 14.6 4.3 15.7 11.9 1 7.6-4.3 14.6-11.9 15.7-7.6 1-14.6-4.3-15.7-11.9z"/><path fill="#fff" d="M558.4 104c-1.3-9.2 5.8-17.8 15.8-19.2 10-1.4 19.1 5 20.4 14.3 1.3 9.2-5.8 17.8-15.8 19.2-10 1.4-19.1-5-20.4-14.3z"/><path fill="#58B7D7" d="M565.6 100.3c-.9-6.7 3.8-12.8 10.5-13.8 6.7-.9 12.8 3.8 13.8 10.5.9 6.7-3.8 12.9-10.5 13.8-6.7.9-12.9-3.8-13.8-10.5z"/><path fill="#fff" d="M535.7 98.9c-.9-6.3 3.9-12.1 10.7-13 6.8-.9 13 3.4 13.8 9.7.9 6.3-3.9 12.1-10.7 13-6.7.9-12.9-3.4-13.8-9.7z"/><path fill="#58B7D7" d="M540.6 96.4c-.6-4.5 2.6-8.7 7.1-9.3 4.5-.6 8.7 2.6 9.3 7.1.6 4.5-2.6 8.7-7.1 9.3-4.5.6-8.7-2.6-9.3-7.1z"/><ellipse transform="matrix(-.991 .135 -.135 -.991 1121.943 49.79)" fill="#fff" cx="559.3" cy="63" rx="8.6" ry="7.9"/><path fill="#58B7D7" d="M554.1 62.4c-.4-3.1 1.8-6 4.9-6.5 3.1-.4 6 1.8 6.5 4.9.4 3.1-1.8 6-4.9 6.5-3.1.4-6-1.8-6.5-4.9z"/><ellipse transform="matrix(-.991 .135 -.135 -.991 1150.771 40.5)" fill="#fff" cx="574" cy="59.3" rx="8.6" ry="7.9"/><path fill="#58B7D7" d="M568.9 58.7c-.4-3.1 1.8-6 4.9-6.5 3.1-.4 6 1.8 6.5 4.9.4 3.1-1.8 6-4.9 6.5-3.2.5-6.1-1.7-6.5-4.9z"/><path fill="#fff" d="M577.8 77.2c-.6-4.3 2.7-8.4 7.4-9 4.7-.6 9 2.4 9.6 6.7.6 4.3-2.7 8.4-7.4 9-4.7.6-9-2.4-9.6-6.7z"/><path fill="#58B7D7" d="M581.2 75.4c-.4-3.1 1.8-6 4.9-6.5 3.1-.4 6 1.8 6.5 4.9.4 3.1-1.8 6-4.9 6.5-3.2.5-6.1-1.7-6.5-4.9z"/><path fill="#fff" d="M457.5 149c-.6-4.1 2.6-7.9 7-8.5 4.4-.6 8.4 2.2 9 6.3.6 4.1-2.6 7.9-7 8.5-4.5.6-8.5-2.2-9-6.3z"/><path fill="#58B7D7" d="M460.6 147.4c-.4-2.9 1.7-5.7 4.6-6.1 3-.4 5.7 1.7 6.1 4.6.4 2.9-1.7 5.7-4.6 6.1-3 .4-5.7-1.7-6.1-4.6z"/><path fill="#fff" d="M394.8 85.2c-.6-4.1 2.6-7.9 7-8.5 4.4-.6 8.4 2.2 9 6.3.6 4.1-2.6 7.9-7 8.5-4.4.6-8.4-2.2-9-6.3z"/><path fill="#58B7D7" d="M398 83.6c-.4-2.9 1.7-5.7 4.6-6.1 3-.4 5.7 1.7 6.1 4.6.4 2.9-1.7 5.7-4.6 6.1-3 .4-5.7-1.7-6.1-4.6z"/></g></g></svg>