<?xml version="1.0" encoding="UTF-8" standalone="no"?>
<svg width="18px" height="15px" viewBox="0 0 18 15" version="1.1" xmlns="http://www.w3.org/2000/svg" xmlns:xlink="http://www.w3.org/1999/xlink" xmlns:sketch="http://www.bohemiancoding.com/sketch/ns">
    <!-- Generator: Sketch Beta 3.2.2 (9983) - http://www.bohemiancoding.com/sketch -->
    <title>github 2</title>
    <desc>Created with Sketch Beta.</desc>
    <defs></defs>
    <g id="Page-1" stroke="none" stroke-width="1" fill="none" fill-rule="evenodd" sketch:type="MSPage">
        <path d="M17.8745502,7.95322445 C17.9080035,7.96229116 17.9247301,7.998558 17.9247301,8.02575813 C17.9080035,8.05295825 17.8912768,8.07109167 17.8661868,8.07109167 L17.8410969,8.07109167 C16.3189723,7.56335593 14.4539515,7.49988896 13.8267024,7.47268883 C13.3416297,8.62416097 12.413301,9.14096342 10.932993,9.37669787 L10.932993,9.37669787 C10.7573632,9.403898 10.5650068,9.43109813 10.3726504,9.44923155 C10.958083,9.84816678 11.1253494,10.3468358 11.1253494,11.7068423 C11.1253494,13.057782 11.1086227,13.2391162 11.1169861,13.5473843 C11.1169861,14.0551201 11.8111418,14.2999212 11.7860518,14.4721887 C11.7609619,14.6353895 11.2089826,14.6081894 10.9497196,14.5084556 C10.2221106,14.2273876 10.2890172,13.5745845 10.2890172,13.5745845 L10.2722906,11.7703092 C10.2722906,11.7703092 10.3224705,10.8001713 9.98793761,10.8001713 L9.98793761,13.7559187 C9.98793761,14.3996551 10.4061037,14.5991227 10.4061037,14.8348571 C10.4061037,15.2428591 9.64504142,14.7985903 9.4108684,14.5356557 C9.05960888,14.1457872 9.09306217,13.3297833 9.10142549,12.6769802 C9.10978881,12.0513772 9.09306217,10.6732374 9.09306217,10.6732374 L8.85052584,10.6823041 C8.85052584,10.6823041 8.9508857,13.683385 8.72507601,14.2273876 C8.43235974,14.9345909 7.54584762,15.1703254 7.54584762,14.8529905 C7.54584762,14.6353895 7.76329399,14.7079232 7.88038049,14.2273876 C7.98910368,13.8193856 7.94728707,10.7548377 7.94728707,10.7548377 C7.94728707,10.7548377 7.66293412,10.9361719 7.66293412,11.5073747 C7.66293412,11.7703092 7.6545708,13.2663163 7.6545708,13.7105851 C7.6545708,14.2727211 6.91859847,14.590056 6.56733895,14.590056 C6.39170919,14.590056 6.1658995,14.5809892 6.1658995,14.4812554 C6.1658995,14.2183209 6.84332858,14.0732535 6.84332858,13.5292509 C6.84332858,13.057782 6.83496526,11.8519096 6.83496526,11.8519096 C6.83496526,11.8519096 6.49206906,11.9153766 6.01535971,11.9153766 C4.79431471,11.9153766 4.4096019,11.0721726 4.22560882,10.6007037 C3.98307249,9.99323413 3.67362958,9.69403271 3.34746002,9.46736497 C3.1467403,9.32229761 3.09656036,9.15909684 3.33073338,9.11376329 C4.4096019,8.89616226 4.68559153,10.4375029 5.40483721,10.6823041 C5.92336317,10.8636383 6.5840656,10.7820379 6.91023515,10.5463034 C6.95205176,10.0748345 7.26149467,9.66683258 7.52912097,9.44923155 L7.47894104,9.44923155 C5.68082683,9.24976394 4.60195831,8.560694 4.04997906,7.46362212 C2.13477834,7.50895567 1.0475465,7.80815709 0.244667594,8.02575813 C0.186124341,8.04389154 0.127581087,8.05295825 0.0774011559,8.07109167 L0.0606745121,8.07109167 C0.0355845464,8.07109167 0.0104945806,8.05295825 0.0104945806,8.02575813 C0.00213125874,7.998558 0.0188579026,7.96229116 0.0523111902,7.95322445 C0.102491122,7.94415774 0.161034375,7.92602432 0.219577628,7.9078909 C1.01409321,7.69028987 2.09296174,7.40015515 3.99143581,7.3457549 C3.94125588,7.23695438 3.89107594,7.11908715 3.84925934,6.99215322 C3.11328701,6.98308651 0.846826771,7.10095373 0.069037834,7.30948806 L0.0606745121,7.30948806 C0.0355845464,7.30948806 0.0104945806,7.29135464 0.00213125874,7.26415451 C-0.00623206317,7.22788767 0.0104945806,7.19162083 0.0439478683,7.18255412 C0.813373484,6.98308651 3.02965379,6.86521928 3.81580605,6.86521928 C3.64017629,6.30308328 3.56490639,5.65934689 3.56490639,4.94307682 C3.56490639,3.66467075 3.93289255,3.18413514 4.42632855,2.4950652 C4.04997906,1.03532494 4.5601417,0.0470535789 4.5601417,0.0470535789 C4.5601417,0.0470535789 5.35465728,-0.134280615 6.8516919,1.02625823 C7.67129745,0.64545642 9.8290345,0.618256291 10.8577231,0.94465784 C11.4849722,0.491322355 12.6307473,-0.143347325 13.0990934,0.0289201595 C13.2245432,0.246521193 13.5005328,0.890257582 13.2747231,2.29559759 C13.4252629,2.60386572 14.2448685,3.25666882 14.2448685,5.11534431 C14.2365051,5.80441425 14.1695986,6.38468367 14.0441487,6.86521928 C16.0011661,6.84708586 17.1469412,7.02842006 17.9498201,7.18255412 C17.9832734,7.19162083 18,7.21882096 18,7.2550878 C17.9832734,7.28228793 17.9665467,7.30948806 17.9330934,7.30948806 C17.9330934,7.30948806 17.9330934,7.30948806 17.9247301,7.30948806 C17.1302145,7.15535399 15.9928027,6.9740198 14.0106955,7.00121993 C13.9772422,7.12815386 13.9437889,7.23695438 13.8936089,7.35482161 C14.5375847,7.37295503 16.3858789,7.45455541 17.8745502,7.95322445 L17.8745502,7.95322445 Z" id="github-2" fill="#A32031" sketch:type="MSShapeGroup"></path>
    </g>
</svg>